<?xml version="1.0" standalone="no"?>
<!DOCTYPE svg PUBLIC "-//W3C//DTD SVG 20010904//EN"
 "http://www.w3.org/TR/2001/REC-SVG-20010904/DTD/svg10.dtd">
<svg version="1.0" xmlns="http://www.w3.org/2000/svg"
 width="73.000000pt" height="73.000000pt" viewBox="0 0 73.000000 73.000000"
 preserveAspectRatio="xMidYMid meet">
<metadata>
Created by potrace 1.11, written by Peter Selinger 2001-2013
</metadata>
<g transform="translate(0.000000,73.000000) scale(0.100000,-0.100000)"
fill="#000000" stroke="none">
<path d="M256 644 l-58 -64 49 0 c46 0 52 3 83 41 l32 41 43 -42 c37 -37 47
-41 83 -38 l40 3 -56 63 c-56 61 -58 62 -107 61 -48 0 -52 -2 -109 -65z"/>
<path d="M96 532 c-61 -32 -72 -42 -83 -78 -13 -40 -13 -42 29 -117 23 -42 45
-74 48 -71 2 3 10 23 16 44 10 34 9 43 -12 80 -13 23 -24 44 -24 46 0 2 22 15
49 28 32 17 51 33 55 50 3 13 9 31 12 40 10 25 -14 19 -90 -22z"/>
<path d="M557 527 c12 -37 21 -46 59 -62 24 -10 44 -22 44 -27 0 -5 -9 -26
-20 -48 -11 -22 -20 -46 -20 -54 0 -19 21 -66 29 -66 3 0 23 33 44 73 37 70
38 76 27 114 -11 36 -19 43 -86 76 -41 21 -78 37 -83 37 -4 0 -2 -19 6 -43z"/>
<path d="M95 193 c15 -121 16 -121 52 -149 l35 -27 85 13 c46 7 86 17 88 20 3
4 -13 19 -34 33 -34 23 -42 24 -85 15 -26 -5 -49 -8 -52 -5 -3 2 -7 27 -10 54
-5 41 -12 53 -38 71 -18 12 -36 22 -40 22 -4 0 -4 -21 -1 -47z"/>
<path d="M592 212 c-25 -21 -32 -35 -32 -62 0 -56 -10 -64 -66 -52 -44 10 -50
8 -81 -15 -18 -14 -33 -28 -33 -32 0 -4 38 -13 85 -20 82 -12 85 -12 115 9 17
12 35 32 39 44 13 32 24 156 14 156 -4 0 -23 -13 -41 -28z"/>
</g>
</svg>
