<?xml version="1.0" standalone="no"?>
<!DOCTYPE svg PUBLIC "-//W3C//DTD SVG 20010904//EN"
 "http://www.w3.org/TR/2001/REC-SVG-20010904/DTD/svg10.dtd">
<svg version="1.0" xmlns="http://www.w3.org/2000/svg"
 width="78.000000pt" height="78.000000pt" viewBox="0 0 78.000000 78.000000"
 preserveAspectRatio="xMidYMid meet">
<metadata>
Created by potrace 1.11, written by Peter Selinger 2001-2013
</metadata>
<g transform="translate(0.000000,78.000000) scale(0.100000,-0.100000)"
fill="#000000" stroke="none">
<path d="M276 664 l-58 -64 49 0 c46 0 52 3 83 41 l32 41 43 -42 c37 -37 47
-41 83 -38 l40 3 -56 63 c-56 61 -58 62 -107 61 -48 0 -52 -2 -109 -65z"/>
<path d="M116 552 c-61 -32 -72 -42 -83 -78 -13 -40 -13 -42 29 -117 23 -42
45 -74 48 -71 2 3 10 23 16 44 10 34 9 43 -12 80 -13 23 -24 44 -24 46 0 2 22
15 49 28 32 17 51 33 55 50 3 13 9 31 12 40 10 25 -14 19 -90 -22z"/>
<path d="M577 547 c12 -37 21 -46 59 -62 24 -10 44 -22 44 -27 0 -5 -9 -26
-20 -48 -11 -22 -20 -46 -20 -54 0 -19 21 -66 29 -66 3 0 23 33 44 73 37 70
38 76 27 114 -11 36 -19 43 -86 76 -41 21 -78 37 -83 37 -4 0 -2 -19 6 -43z"/>
<path d="M260 440 c0 -63 2 -70 20 -70 13 0 20 7 20 19 0 13 9 20 30 24 21 5
31 14 36 32 9 38 -19 65 -68 65 l-38 0 0 -70z m68 18 c-6 -18 -28 -21 -28 -4
0 9 7 16 16 16 9 0 14 -5 12 -12z"/>
<path d="M397 503 c-4 -3 -7 -35 -7 -70 0 -56 2 -63 20 -63 15 0 20 7 20 25 0
20 5 25 25 25 20 0 25 -5 25 -25 0 -16 6 -25 15 -25 12 0 15 14 15 70 0 56 -3
70 -15 70 -9 0 -15 -9 -15 -25 0 -20 -5 -25 -25 -25 -20 0 -25 5 -25 25 0 24
-18 34 -33 18z"/>
<path d="M260 285 l0 -65 55 0 c42 0 55 3 55 15 0 10 -11 15 -35 15 l-35 0 0
50 c0 43 -3 50 -20 50 -18 0 -20 -7 -20 -65z"/>
<path d="M390 285 c0 -58 2 -65 20 -65 16 0 20 7 20 37 l0 38 25 -38 c40 -57
55 -50 55 28 0 51 -3 65 -15 65 -10 0 -15 -10 -15 -32 l-1 -33 -27 33 c-15 18
-35 32 -44 32 -15 0 -18 -10 -18 -65z"/>
<path d="M115 213 c15 -121 16 -121 52 -149 l35 -27 85 13 c46 7 86 17 88 20
3 4 -13 19 -34 33 -34 23 -42 24 -85 15 -26 -5 -49 -8 -52 -5 -3 2 -7 27 -10
54 -5 41 -12 53 -38 71 -18 12 -36 22 -40 22 -4 0 -4 -21 -1 -47z"/>
<path d="M612 232 c-25 -21 -32 -35 -32 -62 0 -56 -10 -64 -66 -52 -44 10 -50
8 -81 -15 -18 -14 -33 -28 -33 -32 0 -4 38 -13 85 -20 82 -12 85 -12 115 9 17
12 35 32 39 44 13 32 24 156 14 156 -4 0 -23 -13 -41 -28z"/>
</g>
</svg>
