<?xml version="1.0" encoding="utf-8"?>
<!-- Generator: Adobe Illustrator 21.1.0, SVG Export Plug-In . SVG Version: 6.00 Build 0)  -->
<svg version="1.1" id="Layer_1" xmlns="http://www.w3.org/2000/svg" xmlns:xlink="http://www.w3.org/1999/xlink" x="0px" y="0px"
	 viewBox="0 0 49 43" style="enable-background:new 0 0 49 43;" xml:space="preserve">
<style type="text/css">
	.st0{fill-rule:evenodd;clip-rule:evenodd;fill:#85BF42;}
</style>
<g>
	<g>
		<path class="st0" d="M45,5c0,0-14,0-25.7,0c-2.7,0-3-5-5.3-5C9.4,0,4,0,4,0C1.8,0,0,1.8,0,4v35c0,2.2,1.8,4,4,4h41
			c2.2,0,4-1.8,4-4V9C49,6.8,47.2,5,45,5z M3,5c0-1.1,0.9-2,2-2c0,0,3.5,0,8,0c2.1,0,1.6,5,6.3,5C31,8,44,8,44,8c1.1,0,2,0.9,2,2v2
			H3V5z M44,40H5c-1.1,0-2-0.9-2-2V15h43v23C46,39.1,45.1,40,44,40z"/>
	</g>
</g>
</svg>
