<?xml version="1.0" encoding="utf-8"?>
<!-- Generator: Adobe Illustrator 21.1.0, SVG Export Plug-In . SVG Version: 6.00 Build 0)  -->
<svg version="1.1" id="Layer_1" xmlns="http://www.w3.org/2000/svg" xmlns:xlink="http://www.w3.org/1999/xlink" x="0px" y="0px"
	 viewBox="0 0 1302 165" style="enable-background:new 0 0 1302 165;" xml:space="preserve">
<style type="text/css">
	.st0{clip-path:url(#SVGID_2_);}
	.st1{fill:none;stroke:url(#SVGID_3_);stroke-width:2;stroke-miterlimit:10;}
	.st2{fill:none;stroke:url(#SVGID_4_);stroke-width:2;stroke-miterlimit:10;}
	.st3{fill:none;stroke:url(#SVGID_5_);stroke-width:2;stroke-miterlimit:10;}
	.st4{fill:none;stroke:url(#SVGID_6_);stroke-width:2;stroke-miterlimit:10;}
	.st5{fill:none;stroke:url(#SVGID_7_);stroke-width:2;stroke-miterlimit:10;}
	.st6{fill:none;stroke:url(#SVGID_8_);stroke-width:2;stroke-miterlimit:10;}
	.st7{fill:none;stroke:url(#SVGID_9_);stroke-width:2;stroke-miterlimit:10;}
	.st8{fill:none;stroke:url(#SVGID_10_);stroke-width:2;stroke-miterlimit:10;}
	.st9{fill:none;stroke:url(#SVGID_11_);stroke-width:2;stroke-miterlimit:10;}
	.st10{fill:none;stroke:url(#SVGID_12_);stroke-width:2;stroke-miterlimit:10;}
	.st11{fill:none;stroke:url(#SVGID_13_);stroke-width:2;stroke-miterlimit:10;}
	.st12{fill:none;stroke:url(#SVGID_14_);stroke-width:2;stroke-miterlimit:10;}
	.st13{fill:none;stroke:url(#SVGID_15_);stroke-width:2;stroke-miterlimit:10;}
	.st14{fill:none;stroke:url(#SVGID_16_);stroke-width:2;stroke-miterlimit:10;}
	.st15{fill:none;stroke:url(#SVGID_17_);stroke-width:2;stroke-miterlimit:10;}
	.st16{fill:none;stroke:url(#SVGID_18_);stroke-width:2;stroke-miterlimit:10;}
	.st17{fill:none;stroke:url(#SVGID_19_);stroke-width:2;stroke-miterlimit:10;}
	.st18{fill:none;stroke:url(#SVGID_20_);stroke-width:2;stroke-miterlimit:10;}
	.st19{fill:none;stroke:url(#SVGID_21_);stroke-width:2;stroke-miterlimit:10;}
	.st20{fill:none;stroke:url(#SVGID_22_);stroke-width:2;stroke-miterlimit:10;}
	.st21{fill:none;stroke:url(#SVGID_23_);stroke-width:2;stroke-miterlimit:10;}
	.st22{fill:none;stroke:url(#SVGID_24_);stroke-width:2;stroke-miterlimit:10;}
	.st23{fill:none;stroke:url(#SVGID_25_);stroke-width:2;stroke-miterlimit:10;}
	.st24{fill:none;stroke:url(#SVGID_26_);stroke-width:2;stroke-miterlimit:10;}
	.st25{fill:none;stroke:url(#SVGID_27_);stroke-width:2;stroke-miterlimit:10;}
	.st26{fill:none;stroke:url(#SVGID_28_);stroke-width:2;stroke-miterlimit:10;}
	.st27{fill:none;stroke:url(#SVGID_29_);stroke-width:2;stroke-miterlimit:10;}
	.st28{fill:none;stroke:url(#SVGID_30_);stroke-width:2;stroke-miterlimit:10;}
	.st29{fill:none;stroke:url(#SVGID_31_);stroke-width:2;stroke-miterlimit:10;}
	.st30{fill:none;stroke:url(#SVGID_32_);stroke-width:2;stroke-miterlimit:10;}
	.st31{fill:none;stroke:url(#SVGID_33_);stroke-width:2;stroke-miterlimit:10;}
	.st32{fill:none;stroke:url(#SVGID_34_);stroke-width:2;stroke-miterlimit:10;}
	.st33{fill:none;stroke:url(#SVGID_35_);stroke-width:2;stroke-miterlimit:10;}
	.st34{fill:none;stroke:url(#SVGID_36_);stroke-width:2;stroke-miterlimit:10;}
	.st35{fill:none;stroke:url(#SVGID_37_);stroke-width:2;stroke-miterlimit:10;}
	.st36{fill:none;stroke:url(#SVGID_38_);stroke-width:2;stroke-miterlimit:10;}
	.st37{fill:none;stroke:url(#SVGID_39_);stroke-width:2;stroke-miterlimit:10;}
	.st38{fill:none;stroke:url(#SVGID_40_);stroke-width:2;stroke-miterlimit:10;}
	.st39{fill:none;stroke:url(#SVGID_41_);stroke-width:2;stroke-miterlimit:10;}
	.st40{fill:none;stroke:url(#SVGID_42_);stroke-width:2;stroke-miterlimit:10;}
	.st41{fill:none;stroke:url(#SVGID_43_);stroke-width:2;stroke-miterlimit:10;}
	.st42{fill:none;stroke:url(#SVGID_44_);stroke-width:2;stroke-miterlimit:10;}
	.st43{fill:none;stroke:url(#SVGID_45_);stroke-width:2;stroke-miterlimit:10;}
	.st44{opacity:0.6;fill:#FFFFFF;stroke:#000000;stroke-miterlimit:10;}
</style>
<title>3-form-1-by-ben-schade</title>
<g id="Layer_1_1_">
	<g>
		<defs>
			<rect id="SVGID_1_" width="1302" height="165"/>
		</defs>
		<clipPath id="SVGID_2_">
			<use xlink:href="#SVGID_1_"  style="overflow:visible;"/>
		</clipPath>
		<g class="st0">
			
				<linearGradient id="SVGID_3_" gradientUnits="userSpaceOnUse" x1="1127.764" y1="-199.0033" x2="1468.4609" y2="-199.0033" gradientTransform="matrix(1 0 0 -1 0 166)">
				<stop  offset="0" style="stop-color:#40A2CE"/>
				<stop  offset="1" style="stop-color:#6D4382"/>
			</linearGradient>
			<path class="st1" d="M1467.5,427.4c0.3,86.4-97.4,145.7-175.8,146c-122.3,0.5-168-142.1-162.4-240.7
				c3-53.1,18.1-114.6,60.7-151.9c36-31.6,82.8-30.4,122.8-7.1c47.3,27.6,82.9,74.3,110.1,121
				C1445.9,334.6,1467.3,380.6,1467.5,427.4z"/>
			
				<linearGradient id="SVGID_4_" gradientUnits="userSpaceOnUse" x1="1097.0452" y1="-191.9744" x2="1440.3392" y2="-191.9744" gradientTransform="matrix(1 0 0 -1 0 166)">
				<stop  offset="0" style="stop-color:#47A5C8"/>
				<stop  offset="1" style="stop-color:#6A457F"/>
			</linearGradient>
			<path class="st2" d="M1439.3,417.1c-1.7,88.5-94.7,155.9-178.3,156.3c-123.7,0.5-167.9-147.9-162.5-246.4
				c3-54.9,18.4-117.5,61.1-157.1c35.2-32.7,83.2-35.1,124.5-12.2c48.2,26.7,84.6,73.5,111.6,120.7
				C1419.3,319.8,1440.2,368.7,1439.3,417.1z"/>
			
				<linearGradient id="SVGID_5_" gradientUnits="userSpaceOnUse" x1="1066.1844" y1="-185.2508" x2="1411.9749" y2="-185.2508" gradientTransform="matrix(1 0 0 -1 0 166)">
				<stop  offset="0" style="stop-color:#4EA7C2"/>
				<stop  offset="1" style="stop-color:#68487D"/>
			</linearGradient>
			<path class="st3" d="M1410.9,407.2c-2.8,90.4-92.2,165.8-180.5,166.1c-125,0.5-167.9-153.4-162.8-251.8
				c2.9-56.4,18.5-120.6,61.3-162c34.8-33.7,83.3-39.2,126-17.1c49.2,25.5,86.2,72.6,112.9,120.2
				C1392.3,305.9,1412.4,356.8,1410.9,407.2z"/>
			
				<linearGradient id="SVGID_6_" gradientUnits="userSpaceOnUse" x1="1035.1852" y1="-178.7741" x2="1383.3536" y2="-178.7741" gradientTransform="matrix(1 0 0 -1 0 166)">
				<stop  offset="0" style="stop-color:#55AABC"/>
				<stop  offset="1" style="stop-color:#654A7A"/>
			</linearGradient>
			<path class="st4" d="M1382.2,397.7c-3.7,92-89.9,175.2-182.4,175.6c-126.2,0.5-168.1-158.5-163.2-256.7
				c2.9-58,18.6-123.3,61.5-166.7c34.4-34.8,83.3-43.3,127.5-21.9C1315.7,171.7,1386.2,298.2,1382.2,397.7z"/>
			
				<linearGradient id="SVGID_7_" gradientUnits="userSpaceOnUse" x1="1004.0511" y1="-172.6154" x2="1354.4657" y2="-172.6154" gradientTransform="matrix(1 0 0 -1 0 166)">
				<stop  offset="0" style="stop-color:#5CACB7"/>
				<stop  offset="1" style="stop-color:#624C77"/>
			</linearGradient>
			<path class="st5" d="M1353.2,388.5c-4.4,93.3-87.8,184.3-184.1,184.7c-127.2,0.5-168.4-163.1-163.8-261.3
				c2.8-59.5,18.6-125.7,61.5-171c34.1-35.9,83.1-47.3,128.7-26.7C1289.8,156.9,1358,287.2,1353.2,388.5z"/>
			
				<linearGradient id="SVGID_8_" gradientUnits="userSpaceOnUse" x1="972.777" y1="-166.113" x2="1325.3123" y2="-166.113" gradientTransform="matrix(1 0 0 -1 0 166)">
				<stop  offset="0" style="stop-color:#63AFB1"/>
				<stop  offset="1" style="stop-color:#604E74"/>
			</linearGradient>
			<path class="st6" d="M1324,379.8c-5,94.5-85.7,192.9-185.4,193.4c-128,0.6-168.7-167.3-164.5-265.4
				c4-93.3,64.8-259.8,191.3-206.4C1263.6,142.9,1329.4,276.8,1324,379.8z"/>
			
				<linearGradient id="SVGID_9_" gradientUnits="userSpaceOnUse" x1="941.4241" y1="-160.6445" x2="1295.8989" y2="-160.6445" gradientTransform="matrix(1 0 0 -1 0 166)">
				<stop  offset="0" style="stop-color:#6AB2AB"/>
				<stop  offset="1" style="stop-color:#5D5172"/>
			</linearGradient>
			<path class="st7" d="M1294.6,371.5c-5,95.7-83.9,200.9-186.6,201.7c-129.1,0.9-169.2-171-165.3-269.2
				c3.7-93.8,63.5-265.1,192.1-214.7C1236.7,129.2,1300.1,267.4,1294.6,371.5z"/>
			
				<linearGradient id="SVGID_10_" gradientUnits="userSpaceOnUse" x1="909.9611" y1="-155.5398" x2="1266.2675" y2="-155.5398" gradientTransform="matrix(1 0 0 -1 0 166)">
				<stop  offset="0" style="stop-color:#71B4A5"/>
				<stop  offset="1" style="stop-color:#5A536F"/>
			</linearGradient>
			<path class="st8" d="M1264.9,363.5c-5.3,96.6-81.9,208.8-187.6,209.6c-129.8,1-169.7-174.5-166.2-272.6
				c3.4-94.5,62.1-270,192.6-222.6C1209.3,116.2,1270.7,258.3,1264.9,363.5z"/>
			
				<linearGradient id="SVGID_11_" gradientUnits="userSpaceOnUse" x1="878.4126" y1="-150.7907" x2="1236.4133" y2="-150.7907" gradientTransform="matrix(1 0 0 -1 0 166)">
				<stop  offset="0" style="stop-color:#78B79F"/>
				<stop  offset="1" style="stop-color:#58556C"/>
			</linearGradient>
			<path class="st9" d="M1235,356c-5.5,97.3-79.9,216.3-188.3,217.1C916.4,574,876.5,395.6,879.6,297.5c3-95.1,60.8-274.3,193-230.1
				C1181.4,103.8,1241,249.7,1235,356z"/>
			
				<linearGradient id="SVGID_12_" gradientUnits="userSpaceOnUse" x1="846.7682" y1="-146.5487" x2="1206.322" y2="-146.5487" gradientTransform="matrix(1 0 0 -1 0 166)">
				<stop  offset="0" style="stop-color:#7FBA99"/>
				<stop  offset="1" style="stop-color:#55586A"/>
			</linearGradient>
			<path class="st10" d="M1204.9,348.8c-5.6,98-78.4,224.4-188.8,224.2c-130.3-0.2-171-178.2-168.2-278.2
				c2.6-95.9,60.2-276.8,193.1-237.2C1152.1,90.7,1210.9,243.3,1204.9,348.8z"/>
			
				<linearGradient id="SVGID_13_" gradientUnits="userSpaceOnUse" x1="815.0562" y1="-142.4653" x2="1176.0323" y2="-142.4653" gradientTransform="matrix(1 0 0 -1 0 166)">
				<stop  offset="0" style="stop-color:#86BC93"/>
				<stop  offset="1" style="stop-color:#525A67"/>
			</linearGradient>
			<path class="st11" d="M1174.6,342c-5.6,98.6-76.5,231.1-189.1,231c-130.7-0.2-171.7-180.4-169.3-280.4
				c2.3-96.7,58.9-280.2,193.1-244C1123.3,79.5,1180.6,235.9,1174.6,342z"/>
			
				<linearGradient id="SVGID_14_" gradientUnits="userSpaceOnUse" x1="783.2888" y1="-138.7916" x2="1145.5526" y2="-138.7916" gradientTransform="matrix(1 0 0 -1 0 166)">
				<stop  offset="0" style="stop-color:#8DBF8E"/>
				<stop  offset="1" style="stop-color:#505C64"/>
			</linearGradient>
			<path class="st12" d="M1144.1,335.7c-5.6,99.1-74.5,237.5-189.2,237.3C824,572.8,782.5,390.9,784.3,290.8
				C786.2,193.3,842,7.5,977.2,40.5C1094.1,68.9,1150.1,229.1,1144.1,335.7z"/>
			
				<linearGradient id="SVGID_15_" gradientUnits="userSpaceOnUse" x1="751.4644" y1="-135.44" x2="1114.8534" y2="-135.44" gradientTransform="matrix(1 0 0 -1 0 166)">
				<stop  offset="0" style="stop-color:#94C188"/>
				<stop  offset="1" style="stop-color:#4D5E61"/>
			</linearGradient>
			<path class="st13" d="M1113.5,329.7c-5.2,99.8-72.6,243.4-189.2,243.3c-131.1-0.2-173.2-183.5-171.8-283.6
				C753.9,191.1,808.8,3.4,945,33.1C1064.8,59.2,1119,222.5,1113.5,329.7z"/>
			
				<linearGradient id="SVGID_16_" gradientUnits="userSpaceOnUse" x1="719.6331" y1="-132.4969" x2="1084.0203" y2="-132.4969" gradientTransform="matrix(1 0 0 -1 0 166)">
				<stop  offset="0" style="stop-color:#9BC482"/>
				<stop  offset="1" style="stop-color:#4A615F"/>
			</linearGradient>
			<path class="st14" d="M1082.7,324.1c-5,100.4-70.8,248.8-189,248.8c-131,0-174-184.5-173-284.7S774.9,0.8,912.5,26.5
				C1035.6,49.4,1088,216.7,1082.7,324.1z"/>
			
				<linearGradient id="SVGID_17_" gradientUnits="userSpaceOnUse" x1="687.705" y1="-129.8608" x2="1053.1787" y2="-129.8608" gradientTransform="matrix(1 0 0 -1 0 166)">
				<stop  offset="0" style="stop-color:#A2C77C"/>
				<stop  offset="1" style="stop-color:#48635C"/>
			</linearGradient>
			<path class="st15" d="M1051.7,318.9c-5.8,100.2-67,253.5-188.7,254c-131.4,0.5-174.9-185.9-174.3-285.3
				c0.5-101,53-289.3,191.2-267C1005.2,40.9,1057.9,212.1,1051.7,318.9z"/>
			
				<linearGradient id="SVGID_18_" gradientUnits="userSpaceOnUse" x1="655.77" y1="-127.5832" x2="1022.119" y2="-127.5832" gradientTransform="matrix(1 0 0 -1 0 166)">
				<stop  offset="0" style="stop-color:#A9C976"/>
				<stop  offset="1" style="stop-color:#456559"/>
			</linearGradient>
			<path class="st16" d="M1020.6,314.1c-5.5,100.5-65.1,258.3-188.2,258.8c-54,0.2-96.8-39.8-123.6-83.5c-37.1-60.3-52-133-52-202.1
				c0.1-101.7,51.9-290.7,190.3-271.8c57.1,7.8,101.7,55.4,128.8,103.3C1009.2,177.7,1024.2,247.4,1020.6,314.1z"/>
			
				<linearGradient id="SVGID_19_" gradientUnits="userSpaceOnUse" x1="623.8876" y1="-125.6466" x2="990.8422" y2="-125.6466" gradientTransform="matrix(1 0 0 -1 0 166)">
				<stop  offset="0" style="stop-color:#B0CC70"/>
				<stop  offset="1" style="stop-color:#426857"/>
			</linearGradient>
			<path class="st17" d="M989.3,309.7c-5.2,100.7-63.2,262.7-187.5,263.2c-54,0.2-97-40-124-83.6c-37.3-60.2-52.7-132.7-52.9-201.8
				C624.5,185,675.6-4.3,814.2,11.3c57.4,6.4,102.4,53.5,129.7,101.2C977.8,171.8,992.8,242.3,989.3,309.7z"/>
			
				<linearGradient id="SVGID_20_" gradientUnits="userSpaceOnUse" x1="591.939" y1="-124.0779" x2="959.4394" y2="-124.0779" gradientTransform="matrix(1 0 0 -1 0 166)">
				<stop  offset="0" style="stop-color:#B7CF6A"/>
				<stop  offset="1" style="stop-color:#406A54"/>
			</linearGradient>
			<path class="st18" d="M958,305.7c-4.9,100.9-61.3,266.7-186.8,267.2c-54.1,0.2-97.2-40.2-124.4-83.6
				C609.3,429.3,593.5,357,593,288C592.1,184.9,642.6-4.4,781.2,7.8c57.5,5.1,103,51.5,130.5,99C946.2,166.5,961.3,237.7,958,305.7z
				"/>
			
				<linearGradient id="SVGID_21_" gradientUnits="userSpaceOnUse" x1="560.0047" y1="-122.8539" x2="927.9122" y2="-122.8539" gradientTransform="matrix(1 0 0 -1 0 166)">
				<stop  offset="0" style="stop-color:#BED165"/>
				<stop  offset="1" style="stop-color:#3D6C51"/>
			</linearGradient>
			<path class="st19" d="M926.5,302.1c-4.5,100.9-59.4,270.3-186,270.8c-54.1,0.2-97.4-40.2-124.8-83.6
				c-37.7-59.6-53.8-131.6-54.7-200.4C559.7,185.1,609.8-3.8,748.1,5.1c57.6,3.7,103.5,49.4,131.3,96.7
				C914.5,161.7,929.6,233.6,926.5,302.1z"/>
			
				<linearGradient id="SVGID_22_" gradientUnits="userSpaceOnUse" x1="528.1987" y1="-122.0147" x2="896.3191" y2="-122.0147" gradientTransform="matrix(1 0 0 -1 0 166)">
				<stop  offset="0" style="stop-color:#C5D45F"/>
				<stop  offset="1" style="stop-color:#3A6E4E"/>
			</linearGradient>
			<path class="st20" d="M895,298.9c-4.1,101-57.5,273.5-185,274c-54.1,0.2-97.6-40.2-125.2-83.4c-37.8-59.2-54.4-130.7-55.6-199.3
				C527.4,185.8,577-2.3,714.9,3.2c57.6,2.3,104,47.2,132,94.2C882.7,157.6,897.8,230,895,298.9z"/>
			
				<linearGradient id="SVGID_23_" gradientUnits="userSpaceOnUse" x1="496.2815" y1="-121.4617" x2="864.6066" y2="-121.4617" gradientTransform="matrix(1 0 0 -1 0 166)">
				<stop  offset="0" style="stop-color:#CCD659"/>
				<stop  offset="1" style="stop-color:#38714C"/>
			</linearGradient>
			<path class="st21" d="M863.3,296.1c-3.7,101.1-56.2,276.8-184,276.8c-129.1,0-179.7-180.5-182-281c-1.5-69.6,13-142.6,50.7-203.1
				c29-46.5,76.1-87.6,133.6-86.6s104.4,45,132.6,91.7C850.7,153.9,865.8,226.8,863.3,296.1z"/>
			
				<linearGradient id="SVGID_24_" gradientUnits="userSpaceOnUse" x1="464.4483" y1="-121.3285" x2="832.7653" y2="-121.3285" gradientTransform="matrix(1 0 0 -1 0 166)">
				<stop  offset="0" style="stop-color:#D3D953"/>
				<stop  offset="1" style="stop-color:#357349"/>
			</linearGradient>
			<path class="st22" d="M831.6,293.6c-2.6,100.5-54.4,279.2-182.9,279.2S468.2,394.5,465.6,294c-1.8-69.4,12.6-142.2,49.8-202.8
				c28.7-46.8,75.4-89,133.1-89.4c57.5-0.4,104.7,42.6,133.2,89C819,151.4,833.4,224.2,831.6,293.6z"/>
			
				<linearGradient id="SVGID_25_" gradientUnits="userSpaceOnUse" x1="432.8853" y1="-121.5233" x2="801.1718" y2="-121.5233" gradientTransform="matrix(1 0 0 -1 0 166)">
				<stop  offset="0" style="stop-color:#D4D652"/>
				<stop  offset="1" style="stop-color:#3A704A"/>
			</linearGradient>
			<path class="st23" d="M800.1,291.6c-2.1,100.5-52.6,281.2-181.8,281.2c-127.7,0-180.2-175.1-184.2-276.4
				C429.9,189.6,481.2,6.3,615.5,2.2c57.3-1.8,104.9,40.2,133.7,86.2C787,149,801.5,222.1,800.1,291.6z"/>
			
				<linearGradient id="SVGID_26_" gradientUnits="userSpaceOnUse" x1="401.4345" y1="-122.077" x2="769.5345" y2="-122.077" gradientTransform="matrix(1 0 0 -1 0 166)">
				<stop  offset="0" style="stop-color:#D4D352"/>
				<stop  offset="1" style="stop-color:#3F6D4B"/>
			</linearGradient>
			<path class="st24" d="M768.5,290c-1.7,100.5-50.9,282.9-180.6,282.9c-126.9,0-180.8-172.3-185.2-273.5
				C398.1,192.1,449.4,10.7,582.5,3.5c57.1-3.1,105.1,37.7,134.1,83.3C755,147.1,769.6,220.4,768.5,290z"/>
			
				<linearGradient id="SVGID_27_" gradientUnits="userSpaceOnUse" x1="370.0626" y1="-122.9937" x2="737.8654" y2="-122.9937" gradientTransform="matrix(1 0 0 -1 0 166)">
				<stop  offset="0" style="stop-color:#D5D051"/>
				<stop  offset="1" style="stop-color:#446A4C"/>
			</linearGradient>
			<path class="st25" d="M736.8,288.8c-1.2,100.5-49.2,284.1-179.3,284.1c-125.9,0-181.3-169.2-186.1-270.3
				C366.3,195,417.8,15.7,549.6,5.4C606.5,1,654.7,40.6,684.1,85.8C722.9,145.7,737.7,219.2,736.8,288.8z"/>
			
				<linearGradient id="SVGID_28_" gradientUnits="userSpaceOnUse" x1="338.788" y1="-124.2599" x2="706.1741" y2="-124.2599" gradientTransform="matrix(1 0 0 -1 0 166)">
				<stop  offset="0" style="stop-color:#D6CD51"/>
				<stop  offset="1" style="stop-color:#49674D"/>
			</linearGradient>
			<path class="st26" d="M705.2,287.9c-0.8,100.4-46.8,283.7-178.1,285c-53.2,0.5-98.2-38.5-127.2-79.8
				c-38.4-54.8-56.4-121.1-59.7-186.9c-5.5-107.8,46.4-284.7,176.6-298c56.4-5.8,105.1,32.5,134.7,77.2
				C690.9,144.9,705.7,218.5,705.2,287.9z"/>
			
				<linearGradient id="SVGID_29_" gradientUnits="userSpaceOnUse" x1="307.6264" y1="-125.891" x2="674.4824" y2="-125.891" gradientTransform="matrix(1 0 0 -1 0 166)">
				<stop  offset="0" style="stop-color:#D6CA50"/>
				<stop  offset="1" style="stop-color:#4E644E"/>
			</linearGradient>
			<path class="st27" d="M673.5,287.4c-0.3,100.4-45.2,284.2-176.8,285.5c-53,0.5-98.2-37.9-127.4-78.8
				c-38.4-53.7-56.7-118.9-60.2-183.9C303.2,202.3,355.5,28,484,11.8c56-7.1,105,29.7,134.9,74C658.7,144.7,673.7,218.2,673.5,287.4
				z"/>
			
				<linearGradient id="SVGID_30_" gradientUnits="userSpaceOnUse" x1="276.5781" y1="-127.8761" x2="642.7803" y2="-127.8761" gradientTransform="matrix(1 0 0 -1 0 166)">
				<stop  offset="0" style="stop-color:#D7C64F"/>
				<stop  offset="1" style="stop-color:#54604F"/>
			</linearGradient>
			<path class="st28" d="M641.8,287.3c0.1,100.3-43.8,284.3-175.5,285.6c-52.8,0.5-98.1-37.2-127.6-77.7
				c-38.3-52.6-56.9-116.6-60.6-180.6c-6.2-108.1,46.6-279.5,173.3-298.6c55.5-8.4,104.7,26.9,134.9,70.7
				C626.6,145.1,641.7,218.5,641.8,287.3z"/>
			
				<linearGradient id="SVGID_31_" gradientUnits="userSpaceOnUse" x1="245.6638" y1="-130.002" x2="611.096" y2="-130.002" gradientTransform="matrix(1 0 0 -1 0 166)">
				<stop  offset="0" style="stop-color:#D8C34F"/>
				<stop  offset="1" style="stop-color:#595D50"/>
			</linearGradient>
			<path class="st29" d="M610.1,287.6c0.6,100.3-42.4,284-174.2,285.3C314.2,574.1,253.2,418,247.2,319.4
				c-6.6-108.1,47-276.4,171.6-298.3C556.7-3,609.5,188,610.1,287.6z"/>
			
				<linearGradient id="SVGID_32_" gradientUnits="userSpaceOnUse" x1="215.0055" y1="-132.6319" x2="579.4273" y2="-132.6319" gradientTransform="matrix(1 0 0 -1 0 166)">
				<stop  offset="0" style="stop-color:#D8C04E"/>
				<stop  offset="1" style="stop-color:#5E5A51"/>
			</linearGradient>
			<path class="st30" d="M578.4,288.3c1,100.2-41.1,283.3-172.9,284.6c-119.3,1.2-183.4-149.6-189-248.3
				c-6.2-108.5,47.7-273.1,170-297.6C523.8-0.4,577.4,189.5,578.4,288.3z"/>
			
				<linearGradient id="SVGID_33_" gradientUnits="userSpaceOnUse" x1="184.3935" y1="-135.6586" x2="547.798" y2="-135.6586" gradientTransform="matrix(1 0 0 -1 0 166)">
				<stop  offset="0" style="stop-color:#D9BD4D"/>
				<stop  offset="1" style="stop-color:#635752"/>
			</linearGradient>
			<path class="st31" d="M546.8,289.4c1.5,100.1-40,282.2-171.7,283.6c-117.5,1.1-183.4-144.4-189.2-242.8
				C179.5,222,234.4,60.7,354.3,33.7C490.9,2.9,545.3,191.3,546.8,289.4z"/>
			
				<linearGradient id="SVGID_34_" gradientUnits="userSpaceOnUse" x1="153.9719" y1="-139.0796" x2="516.2048" y2="-139.0796" gradientTransform="matrix(1 0 0 -1 0 166)">
				<stop  offset="0" style="stop-color:#DABA4D"/>
				<stop  offset="1" style="stop-color:#685453"/>
			</linearGradient>
			<path class="st32" d="M515.1,290.9C517.1,391,476.2,571.7,344.7,573c-115.6,1.1-183.3-138.8-189.2-236.8
				c-6.5-107,50.1-266.4,166.8-295.1C457.4,7.9,513.3,193.5,515.1,290.9z"/>
			
				<linearGradient id="SVGID_35_" gradientUnits="userSpaceOnUse" x1="123.6994" y1="-142.8577" x2="484.6676" y2="-142.8577" gradientTransform="matrix(1 0 0 -1 0 166)">
				<stop  offset="0" style="stop-color:#DAB74C"/>
				<stop  offset="1" style="stop-color:#6D5154"/>
			</linearGradient>
			<path class="st33" d="M483.6,292.8c2.4,100-38,279-169.3,280.2c-113.6,1.1-183.1-132.9-189.1-230.5
				c-6.6-106.5,50-263,165.3-293.2C425.9,13.8,481.2,194.1,483.6,292.8z"/>
			
				<linearGradient id="SVGID_36_" gradientUnits="userSpaceOnUse" x1="93.7131" y1="-146.8951" x2="453.1947" y2="-146.8951" gradientTransform="matrix(1 0 0 -1 0 166)">
				<stop  offset="0" style="stop-color:#DBB44C"/>
				<stop  offset="1" style="stop-color:#724E55"/>
			</linearGradient>
			<path class="st34" d="M452.1,295c2.8,100-37.3,276.8-168.1,278c-111.3,1.1-183.2-126.9-188.8-223.7
				C89.1,243.4,146,90.9,258.9,58.2C393.1,19.5,449.3,197,452.1,295z"/>
			
				<linearGradient id="SVGID_37_" gradientUnits="userSpaceOnUse" x1="63.8654" y1="-151.3337" x2="421.786" y2="-151.3337" gradientTransform="matrix(1 0 0 -1 0 166)">
				<stop  offset="0" style="stop-color:#DCB14B"/>
				<stop  offset="1" style="stop-color:#774B56"/>
			</linearGradient>
			<path class="st35" d="M420.6,297.6c3.2,100-36.6,274.2-167.1,275.4C144.6,574.1,70.7,452.6,65.3,356.4
				c-6-105.2,52.5-253.7,162.4-288.4C360.4,26,417.5,200.5,420.6,297.6z"/>
			
				<linearGradient id="SVGID_38_" gradientUnits="userSpaceOnUse" x1="34.2316" y1="-156.0608" x2="390.4594" y2="-156.0608" gradientTransform="matrix(1 0 0 -1 0 166)">
				<stop  offset="0" style="stop-color:#DCAE4A"/>
				<stop  offset="1" style="stop-color:#7C4857"/>
			</linearGradient>
			<path class="st36" d="M389.2,300.7c3.6,99.9-36.2,271.2-166.1,272.4c-106.2,1-182.2-113.7-187.5-209.2
				c-5.8-104.3,54.5-248.7,161-285.4C327.7,33.3,385.8,204.2,389.2,300.7z"/>
			
				<linearGradient id="SVGID_39_" gradientUnits="userSpaceOnUse" x1="4.8312" y1="-161.1527" x2="359.2683" y2="-161.1527" gradientTransform="matrix(1 0 0 -1 0 166)">
				<stop  offset="0" style="stop-color:#DDAB4A"/>
				<stop  offset="1" style="stop-color:#814558"/>
			</linearGradient>
			<path class="st37" d="M358,304.1c4,99.9-36.1,267.8-165.2,269.1C89.4,574.1,11.1,466.5,6.2,371.8c-5.4-103.1,57-243.5,159.8-282
				C294.9,41.4,354.1,208.5,358,304.1z"/>
			
				<linearGradient id="SVGID_40_" gradientUnits="userSpaceOnUse" x1="-24.3216" y1="-166.5919" x2="328.0958" y2="-166.5919" gradientTransform="matrix(1 0 0 -1 0 166)">
				<stop  offset="0" style="stop-color:#DEA749"/>
				<stop  offset="1" style="stop-color:#874159"/>
			</linearGradient>
			<path class="st38" d="M326.8,307.9c4.3,99.9-36.3,264.8-164.4,265.3c-99.8,0.4-181-98.4-185.4-193.1
				C-27.9,278,36.4,142,135.6,101.8C262.4,50.4,322.7,212.9,326.8,307.9z"/>
			
				<linearGradient id="SVGID_41_" gradientUnits="userSpaceOnUse" x1="-53.2524" y1="-172.3785" x2="297.0704" y2="-172.3785" gradientTransform="matrix(1 0 0 -1 0 166)">
				<stop  offset="0" style="stop-color:#DEA448"/>
				<stop  offset="1" style="stop-color:#8C3E5A"/>
			</linearGradient>
			<path class="st39" d="M295.7,312.1c4.7,99.9-36.5,260.6-163.8,261.1c-96.3,0.4-180.1-91-184-184.4
				c-4.2-100.7,62.3-232.6,157.6-274.1C230.1,60.4,291.3,217.6,295.7,312.1z"/>
			
				<linearGradient id="SVGID_42_" gradientUnits="userSpaceOnUse" x1="-81.9349" y1="-178.5027" x2="266.1748" y2="-178.5027" gradientTransform="matrix(1 0 0 -1 0 166)">
				<stop  offset="0" style="stop-color:#DFA148"/>
				<stop  offset="1" style="stop-color:#913B5B"/>
			</linearGradient>
			<path class="st40" d="M264.8,316.6c5,99.7-36.8,256.2-163.2,256.6C9,573.5-77.6,490-80.8,397.9c-3.5-99,65.4-226.9,156.7-269.6
				C197.9,71.2,260.1,222.7,264.8,316.6z"/>
			
				<linearGradient id="SVGID_43_" gradientUnits="userSpaceOnUse" x1="-110.3199" y1="-185.3616" x2="235.4203" y2="-185.3616" gradientTransform="matrix(1 0 0 -1 0 166)">
				<stop  offset="0" style="stop-color:#E09E47"/>
				<stop  offset="1" style="stop-color:#96385C"/>
			</linearGradient>
			<path class="st41" d="M234,321.6c5.2,99.8-37.6,251.3-162.8,251.7c-88.4,0.3-178.2-75.5-180.5-166c-1.3-50.7,18.4-100.9,43-144.5
				c26.5-47.1,63.6-95.5,112.9-120.2c43.2-21.7,90.8-17.1,126,17C215.4,201.1,231,265.2,234,321.6z"/>
			
				<linearGradient id="SVGID_44_" gradientUnits="userSpaceOnUse" x1="-138.5246" y1="-192.092" x2="204.748" y2="-192.092" gradientTransform="matrix(1 0 0 -1 0 166)">
				<stop  offset="0" style="stop-color:#E09B47"/>
				<stop  offset="1" style="stop-color:#9B355D"/>
			</linearGradient>
			<path class="st42" d="M203.3,327c5.5,99.8-38.6,246-162.5,246.4c-83.7,0.3-177.1-67.5-178.3-156.2c-0.6-48.8,19.9-97,43.7-138.7
				c26.7-46.8,63.2-94.8,111.6-120.7c41.8-22.4,88.8-20.9,124.5,12.2C184.9,209.5,200.3,272.1,203.3,327z"/>
			
				<linearGradient id="SVGID_45_" gradientUnits="userSpaceOnUse" x1="-166.4617" y1="-199.067" x2="174.2532" y2="-199.067" gradientTransform="matrix(1 0 0 -1 0 166)">
				<stop  offset="0" style="stop-color:#E19846"/>
				<stop  offset="1" style="stop-color:#A0325E"/>
			</linearGradient>
			<path class="st43" d="M172.8,332.7c5.7,99.9-39.9,240.3-162.4,240.7c-78.6,0.2-176.3-59.7-175.9-146
				c0.2-46.8,21.5-92.7,44.7-132.6c27-46.4,63-93.9,110.1-121.1c40-23,86.8-24.5,122.8,7.1C154.6,218.1,169.8,279.6,172.8,332.7z"/>
		</g>
	</g>
</g>
<rect x="-41.4" y="-46.9" class="st44" width="1405.1" height="261.4"/>
</svg>
