<svg xmlns="http://www.w3.org/2000/svg" xmlns:xlink="http://www.w3.org/1999/xlink" viewBox="0 0 1302 165"><defs><style>.header-bg-cls-1,.header-bg-cls-10,.header-bg-cls-11,.header-bg-cls-12,.header-bg-cls-13,.header-bg-cls-14,.header-bg-cls-15,.header-bg-cls-16,.header-bg-cls-17,.header-bg-cls-18,.header-bg-cls-19,.header-bg-cls-20,.header-bg-cls-21,.header-bg-cls-22,.header-bg-cls-23,.header-bg-cls-24,.header-bg-cls-25,.header-bg-cls-26,.header-bg-cls-27,.header-bg-cls-28,.header-bg-cls-29,.header-bg-cls-3,.header-bg-cls-30,.header-bg-cls-31,.header-bg-cls-32,.header-bg-cls-33,.header-bg-cls-34,.header-bg-cls-35,.header-bg-cls-36,.header-bg-cls-37,.header-bg-cls-38,.header-bg-cls-39,.header-bg-cls-4,.header-bg-cls-40,.header-bg-cls-41,.header-bg-cls-42,.header-bg-cls-43,.header-bg-cls-44,.header-bg-cls-45,.header-bg-cls-5,.header-bg-cls-6,.header-bg-cls-7,.header-bg-cls-8,.header-bg-cls-9{fill:none;}.header-bg-cls-2{clip-path:url(#clip-path);}.header-bg-cls-10,.header-bg-cls-11,.header-bg-cls-12,.header-bg-cls-13,.header-bg-cls-14,.header-bg-cls-15,.header-bg-cls-16,.header-bg-cls-17,.header-bg-cls-18,.header-bg-cls-19,.header-bg-cls-20,.header-bg-cls-21,.header-bg-cls-22,.header-bg-cls-23,.header-bg-cls-24,.header-bg-cls-25,.header-bg-cls-26,.header-bg-cls-27,.header-bg-cls-28,.header-bg-cls-29,.header-bg-cls-3,.header-bg-cls-30,.header-bg-cls-31,.header-bg-cls-32,.header-bg-cls-33,.header-bg-cls-34,.header-bg-cls-35,.header-bg-cls-36,.header-bg-cls-37,.header-bg-cls-38,.header-bg-cls-39,.header-bg-cls-4,.header-bg-cls-40,.header-bg-cls-41,.header-bg-cls-42,.header-bg-cls-43,.header-bg-cls-44,.header-bg-cls-45,.header-bg-cls-5,.header-bg-cls-6,.header-bg-cls-7,.header-bg-cls-8,.header-bg-cls-9{stroke-miterlimit:10;stroke-width:2px;}.header-bg-cls-3{stroke:url(#linear-gradient);}.header-bg-cls-4{stroke:url(#linear-gradient-2);}.header-bg-cls-5{stroke:url(#linear-gradient-3);}.header-bg-cls-6{stroke:url(#linear-gradient-4);}.header-bg-cls-7{stroke:url(#linear-gradient-5);}.header-bg-cls-8{stroke:url(#linear-gradient-6);}.header-bg-cls-9{stroke:url(#linear-gradient-7);}.header-bg-cls-10{stroke:url(#linear-gradient-8);}.header-bg-cls-11{stroke:url(#linear-gradient-9);}.header-bg-cls-12{stroke:url(#linear-gradient-10);}.header-bg-cls-13{stroke:url(#linear-gradient-11);}.header-bg-cls-14{stroke:url(#linear-gradient-12);}.header-bg-cls-15{stroke:url(#linear-gradient-13);}.header-bg-cls-16{stroke:url(#linear-gradient-14);}.header-bg-cls-17{stroke:url(#linear-gradient-15);}.header-bg-cls-18{stroke:url(#linear-gradient-16);}.header-bg-cls-19{stroke:url(#linear-gradient-17);}.header-bg-cls-20{stroke:url(#linear-gradient-18);}.header-bg-cls-21{stroke:url(#linear-gradient-19);}.header-bg-cls-22{stroke:url(#linear-gradient-20);}.header-bg-cls-23{stroke:url(#linear-gradient-21);}.header-bg-cls-24{stroke:url(#linear-gradient-22);}.header-bg-cls-25{stroke:url(#linear-gradient-23);}.header-bg-cls-26{stroke:url(#linear-gradient-24);}.header-bg-cls-27{stroke:url(#linear-gradient-25);}.header-bg-cls-28{stroke:url(#linear-gradient-26);}.header-bg-cls-29{stroke:url(#linear-gradient-27);}.header-bg-cls-30{stroke:url(#linear-gradient-28);}.header-bg-cls-31{stroke:url(#linear-gradient-29);}.header-bg-cls-32{stroke:url(#linear-gradient-30);}.header-bg-cls-33{stroke:url(#linear-gradient-31);}.header-bg-cls-34{stroke:url(#linear-gradient-32);}.header-bg-cls-35{stroke:url(#linear-gradient-33);}.header-bg-cls-36{stroke:url(#linear-gradient-34);}.header-bg-cls-37{stroke:url(#linear-gradient-35);}.header-bg-cls-38{stroke:url(#linear-gradient-36);}.header-bg-cls-39{stroke:url(#linear-gradient-37);}.header-bg-cls-40{stroke:url(#linear-gradient-38);}.header-bg-cls-41{stroke:url(#linear-gradient-39);}.header-bg-cls-42{stroke:url(#linear-gradient-40);}.header-bg-cls-43{stroke:url(#linear-gradient-41);}.header-bg-cls-44{stroke:url(#linear-gradient-42);}.header-bg-cls-45{stroke:url(#linear-gradient-43);}</style><clipPath id="clip-path"><rect class="header-bg-cls-1" width="1302" height="165"/></clipPath><linearGradient id="linear-gradient" x1="1127.76" y1="365" x2="1468.46" y2="365" gradientUnits="userSpaceOnUse"><stop offset="0" stop-color="#40a2ce"/><stop offset="1" stop-color="#6d4382"/></linearGradient><linearGradient id="linear-gradient-2" x1="1097.05" y1="357.97" x2="1440.34" y2="357.97" gradientUnits="userSpaceOnUse"><stop offset="0" stop-color="#47a5c8"/><stop offset="1" stop-color="#6a457f"/></linearGradient><linearGradient id="linear-gradient-3" x1="1066.18" y1="351.23" x2="1411.97" y2="351.23" gradientUnits="userSpaceOnUse"><stop offset="0" stop-color="#4ea7c2"/><stop offset="1" stop-color="#68487d"/></linearGradient><linearGradient id="linear-gradient-4" x1="1035.18" y1="344.77" x2="1383.35" y2="344.77" gradientUnits="userSpaceOnUse"><stop offset="0" stop-color="#55aabc"/><stop offset="1" stop-color="#654a7a"/></linearGradient><linearGradient id="linear-gradient-5" x1="1004.05" y1="338.62" x2="1354.47" y2="338.62" gradientUnits="userSpaceOnUse"><stop offset="0" stop-color="#5cacb7"/><stop offset="1" stop-color="#624c77"/></linearGradient><linearGradient id="linear-gradient-6" x1="972.8" y1="332.1" x2="1325.33" y2="332.1" gradientUnits="userSpaceOnUse"><stop offset="0" stop-color="#63afb1"/><stop offset="1" stop-color="#604e74"/></linearGradient><linearGradient id="linear-gradient-7" x1="941.43" y1="326.64" x2="1295.9" y2="326.64" gradientUnits="userSpaceOnUse"><stop offset="0" stop-color="#6ab2ab"/><stop offset="1" stop-color="#5d5172"/></linearGradient><linearGradient id="linear-gradient-8" x1="909.97" y1="321.53" x2="1266.27" y2="321.53" gradientUnits="userSpaceOnUse"><stop offset="0" stop-color="#71b4a5"/><stop offset="1" stop-color="#5a536f"/></linearGradient><linearGradient id="linear-gradient-9" x1="878.41" y1="316.78" x2="1236.41" y2="316.78" gradientUnits="userSpaceOnUse"><stop offset="0" stop-color="#78b79f"/><stop offset="1" stop-color="#58556c"/></linearGradient><linearGradient id="linear-gradient-10" x1="846.77" y1="312.55" x2="1206.32" y2="312.55" gradientUnits="userSpaceOnUse"><stop offset="0" stop-color="#7fba99"/><stop offset="1" stop-color="#55586a"/></linearGradient><linearGradient id="linear-gradient-11" x1="815.06" y1="308.49" x2="1176.03" y2="308.49" gradientUnits="userSpaceOnUse"><stop offset="0" stop-color="#86bc93"/><stop offset="1" stop-color="#525a67"/></linearGradient><linearGradient id="linear-gradient-12" x1="783.29" y1="304.79" x2="1145.55" y2="304.79" gradientUnits="userSpaceOnUse"><stop offset="0" stop-color="#8dbf8e"/><stop offset="1" stop-color="#505c64"/></linearGradient><linearGradient id="linear-gradient-13" x1="751.46" y1="301.44" x2="1114.86" y2="301.44" gradientUnits="userSpaceOnUse"><stop offset="0" stop-color="#94c188"/><stop offset="1" stop-color="#4d5e61"/></linearGradient><linearGradient id="linear-gradient-14" x1="719.6" y1="298.5" x2="1084.03" y2="298.5" gradientUnits="userSpaceOnUse"><stop offset="0" stop-color="#9bc482"/><stop offset="1" stop-color="#4a615f"/></linearGradient><linearGradient id="linear-gradient-15" x1="687.7" y1="295.86" x2="1053.18" y2="295.86" gradientUnits="userSpaceOnUse"><stop offset="0" stop-color="#a2c77c"/><stop offset="1" stop-color="#48635c"/></linearGradient><linearGradient id="linear-gradient-16" x1="655.78" y1="293.58" x2="1022.12" y2="293.58" gradientUnits="userSpaceOnUse"><stop offset="0" stop-color="#a9c976"/><stop offset="1" stop-color="#456559"/></linearGradient><linearGradient id="linear-gradient-17" x1="623.86" y1="291.65" x2="990.84" y2="291.65" gradientUnits="userSpaceOnUse"><stop offset="0" stop-color="#b0cc70"/><stop offset="1" stop-color="#426857"/></linearGradient><linearGradient id="linear-gradient-18" x1="591.94" y1="290.08" x2="959.43" y2="290.08" gradientUnits="userSpaceOnUse"><stop offset="0" stop-color="#b7cf6a"/><stop offset="1" stop-color="#406a54"/></linearGradient><linearGradient id="linear-gradient-19" x1="560.03" y1="288.86" x2="927.91" y2="288.86" gradientUnits="userSpaceOnUse"><stop offset="0" stop-color="#bed165"/><stop offset="1" stop-color="#3d6c51"/></linearGradient><linearGradient id="linear-gradient-20" x1="528.14" y1="287.99" x2="896.3" y2="287.99" gradientUnits="userSpaceOnUse"><stop offset="0" stop-color="#c5d45f"/><stop offset="1" stop-color="#3a6e4e"/></linearGradient><linearGradient id="linear-gradient-21" x1="496.26" y1="287.48" x2="864.6" y2="287.48" gradientUnits="userSpaceOnUse"><stop offset="0" stop-color="#ccd659"/><stop offset="1" stop-color="#38714c"/></linearGradient><linearGradient id="linear-gradient-22" x1="464.45" y1="287.32" x2="832.77" y2="287.32" gradientUnits="userSpaceOnUse"><stop offset="0" stop-color="#d3d953"/><stop offset="1" stop-color="#357349"/></linearGradient><linearGradient id="linear-gradient-23" x1="432.89" y1="287.52" x2="801.17" y2="287.52" gradientUnits="userSpaceOnUse"><stop offset="0" stop-color="#d4d652"/><stop offset="1" stop-color="#3a704a"/></linearGradient><linearGradient id="linear-gradient-24" x1="401.43" y1="288.08" x2="769.54" y2="288.08" gradientUnits="userSpaceOnUse"><stop offset="0" stop-color="#d4d352"/><stop offset="1" stop-color="#3f6d4b"/></linearGradient><linearGradient id="linear-gradient-25" x1="370.06" y1="288.99" x2="737.87" y2="288.99" gradientUnits="userSpaceOnUse"><stop offset="0" stop-color="#d5d051"/><stop offset="1" stop-color="#446a4c"/></linearGradient><linearGradient id="linear-gradient-26" x1="338.79" y1="290.26" x2="706.18" y2="290.26" gradientUnits="userSpaceOnUse"><stop offset="0" stop-color="#d6cd51"/><stop offset="1" stop-color="#49674d"/></linearGradient><linearGradient id="linear-gradient-27" x1="307.62" y1="291.89" x2="674.48" y2="291.89" gradientUnits="userSpaceOnUse"><stop offset="0" stop-color="#d6ca50"/><stop offset="1" stop-color="#4e644e"/></linearGradient><linearGradient id="linear-gradient-28" x1="276.58" y1="293.88" x2="642.78" y2="293.88" gradientUnits="userSpaceOnUse"><stop offset="0" stop-color="#d7c64f"/><stop offset="1" stop-color="#54604f"/></linearGradient><linearGradient id="linear-gradient-29" x1="245.66" y1="296" x2="611.1" y2="296" gradientUnits="userSpaceOnUse"><stop offset="0" stop-color="#d8c34f"/><stop offset="1" stop-color="#595d50"/></linearGradient><linearGradient id="linear-gradient-30" x1="214.99" y1="298.65" x2="579.43" y2="298.65" gradientUnits="userSpaceOnUse"><stop offset="0" stop-color="#d8c04e"/><stop offset="1" stop-color="#5e5a51"/></linearGradient><linearGradient id="linear-gradient-31" x1="184.39" y1="301.64" x2="547.8" y2="301.64" gradientUnits="userSpaceOnUse"><stop offset="0" stop-color="#d9bd4d"/><stop offset="1" stop-color="#635752"/></linearGradient><linearGradient id="linear-gradient-32" x1="153.97" y1="305.07" x2="516.21" y2="305.07" gradientUnits="userSpaceOnUse"><stop offset="0" stop-color="#daba4d"/><stop offset="1" stop-color="#685453"/></linearGradient><linearGradient id="linear-gradient-33" x1="123.71" y1="308.86" x2="484.67" y2="308.86" gradientUnits="userSpaceOnUse"><stop offset="0" stop-color="#dab74c"/><stop offset="1" stop-color="#6d5154"/></linearGradient><linearGradient id="linear-gradient-34" x1="93.71" y1="312.92" x2="453.19" y2="312.92" gradientUnits="userSpaceOnUse"><stop offset="0" stop-color="#dbb44c"/><stop offset="1" stop-color="#724e55"/></linearGradient><linearGradient id="linear-gradient-35" x1="63.86" y1="317.32" x2="421.79" y2="317.32" gradientUnits="userSpaceOnUse"><stop offset="0" stop-color="#dcb14b"/><stop offset="1" stop-color="#774b56"/></linearGradient><linearGradient id="linear-gradient-36" x1="34.23" y1="322.06" x2="390.46" y2="322.06" gradientUnits="userSpaceOnUse"><stop offset="0" stop-color="#dcae4a"/><stop offset="1" stop-color="#7c4857"/></linearGradient><linearGradient id="linear-gradient-37" x1="4.83" y1="327.15" x2="359.23" y2="327.15" gradientUnits="userSpaceOnUse"><stop offset="0" stop-color="#ddab4a"/><stop offset="1" stop-color="#814558"/></linearGradient><linearGradient id="linear-gradient-38" x1="-24.32" y1="332.59" x2="328.09" y2="332.59" gradientUnits="userSpaceOnUse"><stop offset="0" stop-color="#dea749"/><stop offset="1" stop-color="#874159"/></linearGradient><linearGradient id="linear-gradient-39" x1="-53.26" y1="338.38" x2="297.07" y2="338.38" gradientUnits="userSpaceOnUse"><stop offset="0" stop-color="#dea448"/><stop offset="1" stop-color="#8c3e5a"/></linearGradient><linearGradient id="linear-gradient-40" x1="-81.93" y1="344.5" x2="266.16" y2="344.5" gradientUnits="userSpaceOnUse"><stop offset="0" stop-color="#dfa148"/><stop offset="1" stop-color="#913b5b"/></linearGradient><linearGradient id="linear-gradient-41" x1="-110.36" y1="351.37" x2="235.39" y2="351.37" gradientUnits="userSpaceOnUse"><stop offset="0" stop-color="#e09e47"/><stop offset="1" stop-color="#96385c"/></linearGradient><linearGradient id="linear-gradient-42" x1="-138.53" y1="358.06" x2="204.75" y2="358.06" gradientUnits="userSpaceOnUse"><stop offset="0" stop-color="#e09b47"/><stop offset="1" stop-color="#9b355d"/></linearGradient><linearGradient id="linear-gradient-43" x1="-166.46" y1="365.06" x2="174.25" y2="365.06" gradientUnits="userSpaceOnUse"><stop offset="0" stop-color="#e19846"/><stop offset="1" stop-color="#a0325e"/></linearGradient></defs><title>3-form-1-by-ben-schade</title><g id="Layer_1" data-name="Layer 1"><g class="header-bg-cls-2"><path class="header-bg-cls-3" d="M1467.46,427.4c.35,86.39-97.42,145.7-175.85,146-122.29.46-168-142.15-162.39-240.68,3-53.07,18.14-114.61,60.67-151.93,36-31.57,82.8-30.41,122.8-7.06C1360,201.36,1395.6,248,1422.79,294.78,1445.94,334.62,1467.27,380.57,1467.46,427.4Z"/><path class="header-bg-cls-4" d="M1439.31,417.09C1437.63,505.55,1344.6,573,1261,573.35c-123.72.47-167.91-147.94-162.52-246.42,3-54.9,18.43-117.52,61.11-157.05,35.23-32.65,83.17-35.07,124.46-12.2,48.16,26.67,84.6,73.47,111.56,120.68C1419.27,319.78,1440.23,368.66,1439.31,417.09Z"/><path class="header-bg-cls-5" d="M1410.89,407.18c-2.81,90.36-92.24,165.77-180.49,166.13-125,.5-167.94-153.39-162.81-251.76,2.95-56.43,18.53-120.55,61.34-162,34.8-33.73,83.31-39.25,126-17.08,49.2,25.52,86.16,72.6,112.95,120.19C1392.3,305.92,1412.45,356.8,1410.89,407.18Z"/><path class="header-bg-cls-6" d="M1382.19,397.66c-3.72,92-89.94,175.21-182.4,175.6-126.15.53-168.1-158.46-163.23-256.71,2.87-57.95,18.56-123.27,61.47-166.68,34.41-34.81,83.31-43.34,127.46-21.92C1315.71,171.74,1386.21,298.16,1382.19,397.66Z"/><path class="header-bg-cls-7" d="M1353.23,388.53c-4.42,93.3-87.75,184.28-184.05,184.68-127.17.54-168.37-163.07-163.79-261.27,2.77-59.47,18.58-125.72,61.5-171C1101,105,1150,93.62,1195.6,114.27,1289.85,156.93,1358,287.22,1353.23,388.53Z"/><path class="header-bg-cls-8" d="M1324,379.8c-5,94.55-85.66,192.94-185.45,193.38-128,.56-168.7-167.31-164.48-265.43,4-93.26,64.81-259.8,191.26-206.37C1263.55,142.86,1329.43,276.77,1324,379.8Z"/><path class="header-bg-cls-9" d="M1294.57,371.46c-5,95.69-83.88,200.94-186.62,201.68-129.14.92-169.17-171-165.27-269.21,3.72-93.82,63.47-265.14,192.06-214.67C1236.65,129.25,1300.05,267.42,1294.57,371.46Z"/><path class="header-bg-cls-10" d="M1264.89,363.52c-5.33,96.63-81.88,208.81-187.55,209.59-129.81,1-169.67-174.45-166.17-272.59C914.55,206,973.28,30.56,1103.8,77.93,1209.31,116.21,1270.69,258.27,1264.89,363.52Z"/><path class="header-bg-cls-11" d="M1235,356c-5.51,97.34-79.89,216.29-188.27,217.1C916.38,574,876.46,395.6,879.58,297.48c3-95.1,60.75-274.34,193-230.1C1181.42,103.8,1241,249.74,1235,356Z"/><path class="header-bg-cls-12" d="M1204.9,348.81c-5.61,98-78.39,224.38-188.78,224.23-130.3-.17-171-178.2-168.22-278.19C850.55,198.9,908.12,18.09,1041,57.62,1152.14,90.67,1210.93,243.29,1204.9,348.81Z"/><path class="header-bg-cls-13" d="M1174.6,342c-5.61,98.63-76.48,231.11-189.1,231-130.65-.17-171.69-180.38-169.35-280.4,2.26-96.66,58.91-280.24,193.09-244C1123.3,79.49,1180.64,235.95,1174.6,342Z"/><path class="header-bg-cls-14" d="M1144.12,335.68c-5.56,99.13-74.54,237.46-189.24,237.31C824,572.81,782.46,390.85,784.35,290.77,786.19,193.33,842,7.5,977.21,40.46,1094.07,68.95,1150.1,229.14,1144.12,335.68Z"/><path class="header-bg-cls-15" d="M1113.47,329.7c-5.19,99.82-72.63,243.41-189.2,243.26-131.08-.17-173.21-183.51-171.77-283.64C753.92,191.14,808.82,3.4,945,33.06,1064.8,59.18,1119,222.5,1113.47,329.7Z"/><path class="header-bg-cls-16" d="M1082.65,324.12c-5,100.37-70.82,248.84-189,248.82-131,0-174-184.47-173-284.68S774.89.75,912.51,26.45C1035.57,49.42,1088,216.74,1082.65,324.12Z"/><path class="header-bg-cls-17" d="M1051.69,318.93c-5.83,100.17-67,253.53-188.66,254-131.42.5-174.86-185.86-174.32-285.32.55-101,53.05-289.31,191.18-267C1005.17,40.86,1057.9,212.1,1051.69,318.93Z"/><path class="header-bg-cls-18" d="M1020.58,314.14c-5.53,100.48-65.08,258.3-188.17,258.77-54,.2-96.81-39.83-123.64-83.47-37.08-60.3-52-133-52-202.1.09-101.69,51.88-290.71,190.33-271.76C904.21,23.38,948.8,71,975.89,118.86,1009.16,177.67,1024.25,247.4,1020.58,314.14Z"/><path class="header-bg-cls-19" d="M989.35,309.74c-5.21,100.68-63.19,262.67-187.55,263.15-54,.21-97-40.05-124-83.62-37.29-60.16-52.65-132.73-52.91-201.82C624.48,185,675.6-4.29,814.21,11.31c57.36,6.45,102.37,53.49,129.66,101.22C977.78,171.82,992.84,242.29,989.35,309.74Z"/><path class="header-bg-cls-20" d="M958,305.74c-4.87,100.85-61.3,266.66-186.82,267.15-54.08.21-97.22-40.19-124.41-83.65C609.28,429.3,593.53,357,592.95,288,592.08,184.89,642.64-4.4,781.2,7.83c57.51,5.08,103,51.48,130.5,99C946.23,166.5,961.28,237.71,958,305.74Z"/><path class="header-bg-cls-21" d="M926.53,302.12c-4.48,100.94-59.42,270.27-186,270.75-54.09.21-97.4-40.23-124.79-83.57-37.68-59.61-53.82-131.56-54.71-200.42C559.71,185.14,609.77-3.75,748.1,5.14c57.6,3.7,103.55,49.4,131.28,96.67C914.53,161.74,929.57,233.59,926.53,302.12Z"/><path class="header-bg-cls-22" d="M895,298.91c-4.08,101-57.55,273.47-185,274-54.06.21-97.56-40.19-125.17-83.37-37.85-59.19-54.38-130.7-55.58-199.3C527.37,185.82,577-2.34,714.93,3.24c57.63,2.33,104,47.22,132,94.23C882.69,157.56,897.76,230,895,298.91Z"/><path class="header-bg-cls-23" d="M863.34,296.08c-3.67,101.08-56.22,276.79-184,276.78-129.07,0-179.74-180.47-181.95-281-1.53-69.55,13-142.62,50.73-203.15,29-46.49,76.07-87.59,133.63-86.63s104.41,45,132.64,91.67C850.72,153.94,865.85,226.83,863.34,296.08Z"/><path class="header-bg-cls-24" d="M831.62,293.65C829,394.12,777.22,572.86,648.69,572.87S468.24,394.48,465.6,294c-1.82-69.4,12.62-142.16,49.77-202.81,28.7-46.84,75.43-89,133.13-89.4,57.5-.41,104.72,42.62,133.21,89C818.95,151.41,833.4,224.23,831.62,293.65Z"/><path class="header-bg-cls-25" d="M800.07,291.63c-2.13,100.49-52.64,281.24-181.78,281.24-127.71,0-180.21-175.1-184.17-276.4C429.94,189.62,481.24,6.35,615.51,2.23c57.34-1.76,104.94,40.2,133.7,86.22C787,149,801.55,222.06,800.07,291.63Z"/><path class="header-bg-cls-26" d="M768.47,290c-1.69,100.49-50.91,282.87-180.58,282.87-126.87,0-180.8-172.31-185.17-273.55C398.09,192.08,449.43,10.68,582.55,3.45c57.11-3.1,105.07,37.7,134.11,83.34C755,147.06,769.64,220.38,768.47,290Z"/><path class="header-bg-cls-27" d="M736.83,288.75c-1.24,100.46-49.23,284.12-179.34,284.13-125.94,0-181.33-169.16-186.09-270.31C366.34,195,417.84,15.73,549.63,5.45,606.45,1,654.74,40.57,684.07,85.79,722.93,145.74,737.69,219.17,736.83,288.75Z"/><path class="header-bg-cls-28" d="M705.16,287.89c-.78,100.41-46.8,283.73-178.07,285-53.24.51-98.24-38.54-127.16-79.8C361.54,438.31,343.53,372,340.18,306.2c-5.49-107.8,46.35-284.7,176.6-298,56.4-5.75,105.09,32.45,134.71,77.2C690.86,144.92,705.7,218.49,705.16,287.89Z"/><path class="header-bg-cls-29" d="M673.48,287.42c-.32,100.36-45.25,284.21-176.78,285.47-53,.51-98.2-37.91-127.42-78.81-38.37-53.72-56.67-118.9-60.21-183.86C303.19,202.26,355.46,28,484,11.76c56-7.06,104.95,29.7,134.86,74C658.72,144.72,673.7,218.24,673.48,287.42Z"/><path class="header-bg-cls-30" d="M641.78,287.34c.13,100.31-43.77,284.31-175.49,285.57-52.76.51-98.13-37.2-127.65-77.71-38.32-52.57-56.88-116.55-60.57-180.56C271.83,206.55,324.7,35.12,451.36,16.07c55.49-8.35,104.7,26.87,134.93,70.65C626.58,145.08,641.69,218.47,641.78,287.34Z"/><path class="header-bg-cls-31" d="M610.09,287.65c.59,100.26-42.41,284-174.19,285.28C314.23,574.1,253.19,418,247.2,319.44,240.63,211.39,294.24,43,418.83,21.16,556.71-3,609.51,188,610.09,287.65Z"/><path class="header-bg-cls-32" d="M578.41,288.34c1,100.16-41.1,283.32-172.92,284.6-119.28,1.16-183.37-149.57-189-248.32C210.25,216.12,264.14,51.5,386.46,27,523.79-.45,577.39,189.5,578.41,288.34Z"/><path class="header-bg-cls-33" d="M546.76,289.43C548.24,389.54,506.81,571.68,375.1,573,257.62,574.11,191.68,428.61,185.89,330.2,179.52,222,234.38,60.69,354.26,33.67,490.87,2.88,545.3,191.33,546.76,289.43Z"/><path class="header-bg-cls-34" d="M515.14,290.9C517.07,391,476.24,571.72,344.7,573,229.1,574.11,161.39,434.2,155.47,336.17,149,229.21,205.61,69.75,322.26,41.08,457.43,7.86,513.27,193.54,515.14,290.9Z"/><path class="header-bg-cls-35" d="M483.57,292.76c2.37,100-38,279-169.27,280.25-113.55,1.1-183.09-132.92-189.09-230.5-6.55-106.52,50-263,165.26-293.25C425.93,13.76,481.23,194.06,483.57,292.76Z"/><path class="header-bg-cls-36" d="M452.06,295c2.79,100-37.26,276.78-168.15,278C172.58,574.11,100.69,446.11,95.15,349.26,89.1,243.38,146,90.87,258.93,58.23,393.08,19.46,449.32,197,452.06,295Z"/><path class="header-bg-cls-37" d="M420.61,297.64c3.2,100-36.65,274.15-167.1,275.43C144.61,574.14,70.73,452.57,65.28,356.39,59.32,251.23,117.82,102.72,227.64,68,360.38,26,417.5,200.5,420.61,297.64Z"/><path class="header-bg-cls-38" d="M389.24,300.67C392.83,400.61,353,571.84,223.12,573.1c-106.22,1-182.23-113.69-187.51-209.2-5.76-104.27,54.53-248.71,161-285.43C327.68,33.3,385.78,204.2,389.24,300.67Z"/><path class="header-bg-cls-39" d="M358,304.08c4,99.92-36.06,267.81-165.24,269.06C89.39,574.13,11.15,466.46,6.16,371.81c-5.44-103.13,57-243.5,159.78-282.05C294.92,41.4,354.15,208.47,358,304.08Z"/><path class="header-bg-cls-40" d="M326.79,307.89c4.31,99.88-36.27,264.75-164.45,265.29-99.79.42-181-98.42-185.41-193.07C-27.87,278,36.4,142,135.56,101.82,262.43,50.44,322.68,212.86,326.79,307.89Z"/><path class="header-bg-cls-41" d="M295.72,312.08c4.66,99.89-36.49,260.61-163.78,261.14-96.31.4-180.06-91-184-184.43-4.25-100.67,62.33-232.62,157.6-274.14C230.09,60.37,291.31,217.6,295.72,312.08Z"/><path class="header-bg-cls-42" d="M264.78,316.65c5,99.72-36.83,256.2-163.22,256.61C9,573.55-77.59,490-80.81,397.86c-3.46-99,65.38-226.89,156.68-269.6C197.95,71.15,260.11,222.69,264.78,316.65Z"/><path class="header-bg-cls-43" d="M234,321.62c5.22,99.78-37.57,251.29-162.8,251.68-88.36.28-178.16-75.46-180.46-166-1.29-50.73,18.41-100.86,43-144.48,26.53-47.13,63.6-95.48,112.93-120.2,43.23-21.66,90.8-17.11,126,17C215.44,201.12,231,265.2,234,321.62Z"/><path class="header-bg-cls-44" d="M203.3,327c5.47,99.83-38.6,246-162.52,246.38-83.7.26-177.14-67.51-178.29-156.19-.64-48.78,19.88-97,43.71-138.69,26.74-46.82,63.21-94.79,111.55-120.68,41.77-22.38,88.79-20.87,124.45,12.16C184.86,209.47,200.29,272.09,203.3,327Z"/><path class="header-bg-cls-45" d="M172.79,332.72C178.44,432.57,132.87,573,10.39,573.4c-78.55.24-176.32-59.73-175.85-146,.25-46.81,21.48-92.72,44.66-132.62,27-46.41,63-93.94,110.11-121.06,40-23,86.82-24.51,122.8,7.06C154.64,218.11,169.78,279.65,172.79,332.72Z"/></g></g></svg>