<svg width="15px" height="15px" viewBox="0 0 15 15" version="1.1" xmlns="http://www.w3.org/2000/svg" xmlns:xlink="http://www.w3.org/1999/xlink">
    <g  stroke="none" stroke-width="1" fill="none" fill-rule="evenodd">
        <g id="Molecules-1" transform="translate(-308.000000, -1614.000000)" fill-rule="nonzero">
            <g id="Organism-/-Header-Desktop-Nav---expanded-/-3-col" transform="translate(-8.000000, 1384.000000)">
                <g id="Organism-/-Header-Desktop-Nav---expanded-/-4-col">
                    <g>
                        <g id="Dropdown" transform="translate(5.000000, 157.000000)">
                            <g id="info-icon" transform="translate(312.000000, 74.000000)">
                                <path d="M6.5,0 C2.91040121,0 0,2.9114496 0,6.5 C0,10.0906472 2.91040121,13 6.5,13 C10.0895988,13 13,10.0906472 13,6.5 C13,2.9114496 10.0895988,0 6.5,0 Z" id="Shape" stroke="#004169"></path>
                                <path d="M6.5,2.88306452 C7.10795968,2.88306452 7.60080645,3.37591129 7.60080645,3.98387097 C7.60080645,4.59183065 7.10795968,5.08467742 6.5,5.08467742 C5.89204032,5.08467742 5.39919355,4.59183065 5.39919355,3.98387097 C5.39919355,3.37591129 5.89204032,2.88306452 6.5,2.88306452 Z" id="Path" fill="#004169"></path>
                                <path d="M7.96774194,9.54032258 C7.96774194,9.71401411 7.82691734,9.85483871 7.65322581,9.85483871 L5.34677419,9.85483871 C5.17308266,9.85483871 5.03225806,9.71401411 5.03225806,9.54032258 L5.03225806,8.91129032 C5.03225806,8.73759879 5.17308266,8.59677419 5.34677419,8.59677419 L5.66129032,8.59677419 L5.66129032,6.91935484 L5.34677419,6.91935484 C5.17308266,6.91935484 5.03225806,6.77853024 5.03225806,6.60483871 L5.03225806,5.97580645 C5.03225806,5.80211492 5.17308266,5.66129032 5.34677419,5.66129032 L7.02419355,5.66129032 C7.19788508,5.66129032 7.33870968,5.80211492 7.33870968,5.97580645 L7.33870968,8.59677419 L7.65322581,8.59677419 C7.82691734,8.59677419 7.96774194,8.73759879 7.96774194,8.91129032 L7.96774194,9.54032258 Z" id="Path" fill="#004169"></path>
                            </g>
                        </g>
                    </g>
                </g>
            </g>
        </g>
    </g>
</svg>