<?xml version="1.0" encoding="utf-8"?>
<!-- Generator: Adobe Illustrator 18.1.1, SVG Export Plug-In . SVG Version: 6.00 Build 0)  -->
<!DOCTYPE svg PUBLIC "-//W3C//DTD SVG 1.1//EN" "http://www.w3.org/Graphics/SVG/1.1/DTD/svg11.dtd">
<svg version="1.1" id="Layer_1" xmlns="http://www.w3.org/2000/svg" xmlns:xlink="http://www.w3.org/1999/xlink" x="0px" y="0px"
	 viewBox="0 0 472.8 102.4" enable-background="new 0 0 472.8 102.4" xml:space="preserve">
<g>
	<path fill="#0499CD" d="M39.6,0v30.2l71.5,72.2V32.5c0-7.7-2-20.9-19.3-32v51.6L39.6,0z"/>
	<path fill="#67297E" d="M70.9,102.2V71.9L0,0.5v69.9c0,7.7,2,20.9,19.3,32V50.8L70.9,102.2z"/>
	<polygon fill="#67297E" points="148.5,41.5 151.5,41.5 151.5,69.5 149,69.5 130.9,46.5 130.9,69.5 127.9,69.5 127.9,41.5 
		130.8,41.5 148.5,63.9 	"/>
	<path fill="#67297E" d="M159.8,52.8l-0.9-2.5c2.3-1,4.5-1.7,7.5-1.7c5.6,0,8.8,2.9,8.8,8.3v12.6h-3v-3.1c-1.4,1.9-3.8,3.6-7.5,3.6
		c-3.8,0-7.7-2.2-7.7-6.5c0-4.4,3.6-6.7,8.8-6.7c2.6,0,4.5,0.4,6.4,0.9v-0.7c0-3.7-2.3-5.6-6.2-5.6
		C163.7,51.3,161.8,51.9,159.8,52.8 M160.2,63.3c0,2.6,2.4,4.2,5.2,4.2c3.8,0,6.9-2.3,6.9-5.6v-2c-1.5-0.4-3.6-0.9-6.1-0.9
		C162.4,59,160.2,60.7,160.2,63.3"/>
	<path fill="#67297E" d="M185.8,63.6c0,2.5,1.4,3.4,3.5,3.4c1,0,1.9-0.2,3-0.7V69c-1.1,0.6-2.2,0.9-3.7,0.9c-3.3,0-5.8-1.6-5.8-5.8
		V51.5h-2.9v-2.7h2.9v-6.2h3.1v6.2h6.6v2.7h-6.6V63.6z"/>
	<path fill="#67297E" d="M198.2,40.9h3.5v3.4h-3.5V40.9z M198.4,48.8h3.1v20.7h-3.1V48.8z"/>
	<path fill="#67297E" d="M217.7,70c-6.2,0-10.7-4.9-10.7-10.8c0-5.9,4.6-10.8,10.8-10.8c6.2,0,10.8,4.9,10.8,10.8
		C228.6,65,224,70,217.7,70 M217.7,51.1c-4.5,0-7.6,3.6-7.6,8c0,4.5,3.3,8.1,7.6,8.1c4.5,0,7.6-3.6,7.6-8
		C225.4,54.7,222.1,51.1,217.7,51.1"/>
	<path fill="#67297E" d="M236.3,69.5h-3.1V48.8h3.1v3.6c1.4-2.2,3.5-4,7.1-4c5,0,7.9,3.4,7.9,8.3v12.8h-3.1V57.4
		c0-3.8-2.1-6.2-5.7-6.2c-3.6,0-6.2,2.6-6.2,6.5V69.5z"/>
	<path fill="#67297E" d="M259.3,52.8l-0.9-2.5c2.3-1,4.5-1.7,7.5-1.7c5.6,0,8.8,2.9,8.8,8.3v12.6h-3v-3.1c-1.4,1.9-3.8,3.6-7.5,3.6
		c-3.8,0-7.7-2.2-7.7-6.5c0-4.4,3.6-6.7,8.8-6.7c2.6,0,4.5,0.4,6.4,0.9v-0.7c0-3.7-2.3-5.6-6.2-5.6
		C263.1,51.3,261.2,51.9,259.3,52.8 M259.6,63.3c0,2.6,2.4,4.2,5.2,4.2c3.8,0,6.9-2.3,6.9-5.6v-2c-1.5-0.4-3.6-0.9-6.1-0.9
		C261.8,59,259.6,60.7,259.6,63.3"/>
	<rect x="281.7" y="40.3" fill="#67297E" width="3.1" height="29.2"/>
	<polygon fill="#67297E" points="325.3,41.5 328.4,41.5 328.4,69.5 325.9,69.5 307.8,46.5 307.8,69.5 304.7,69.5 304.7,41.5 
		307.7,41.5 325.3,63.9 	"/>
	<path fill="#67297E" d="M344.4,67.3c2.8,0,4.8-1.2,6.5-2.9l1.9,1.7c-2.1,2.3-4.6,3.9-8.5,3.9c-5.7,0-10.3-4.4-10.3-10.8
		c0-6,4.2-10.8,9.9-10.8c6.1,0,9.6,4.9,9.6,11c0,0.3,0,0.6,0,1h-16.4C337.6,64.8,340.8,67.3,344.4,67.3 M350.5,58
		c-0.3-3.8-2.5-7-6.6-7c-3.6,0-6.3,3-6.7,7H350.5z"/>
	<path fill="#67297E" d="M363.9,63.6c0,2.5,1.4,3.4,3.5,3.4c1,0,1.9-0.2,3-0.7V69c-1.1,0.6-2.2,0.9-3.7,0.9c-3.3,0-5.8-1.6-5.8-5.8
		V51.5h-2.9v-2.7h2.9v-6.2h3.1v6.2h6.6v2.7h-6.6V63.6z"/>
	<polygon fill="#67297E" points="397.2,65.4 402.6,48.8 405.8,48.8 398.6,69.6 395.9,69.6 390.3,53.3 384.7,69.6 382,69.6 
		374.8,48.8 378,48.8 383.5,65.4 389,48.7 391.6,48.7 	"/>
	<path fill="#67297E" d="M420.2,70c-6.2,0-10.7-4.9-10.7-10.8c0-5.9,4.6-10.8,10.8-10.8c6.2,0,10.8,4.9,10.8,10.8
		C431,65,426.4,70,420.2,70 M420.2,51.1c-4.5,0-7.6,3.6-7.6,8c0,4.5,3.3,8.1,7.6,8.1c4.5,0,7.6-3.6,7.6-8
		C427.9,54.7,424.6,51.1,420.2,51.1"/>
	<path fill="#67297E" d="M440.4,69.5h-3.1V48.8h3.1v5.4c1.5-3.4,4.5-5.9,8.4-5.8v3.3h-0.2c-4.5,0-8.2,3.2-8.2,9.5V69.5z"/>
	<polygon fill="#67297E" points="472.5,69.5 468.8,69.5 461.4,59.9 457.2,64.1 457.2,69.5 454.1,69.5 454.1,40.3 457.2,40.3 
		457.2,60.5 468.4,48.8 472.2,48.8 463.5,57.7 	"/>
	<path fill="#67297E" d="M135.1,102.4c-4.2,0-7.2-3.3-7.2-7.3c0-4,3.1-7.3,7.3-7.3c4.2,0,7.3,3.3,7.3,7.3
		C142.4,99.1,139.3,102.4,135.1,102.4 M135.1,89.7c-3,0-5.1,2.4-5.1,5.4c0,3,2.2,5.5,5.2,5.5c3,0,5.1-2.4,5.1-5.4
		C140.3,92.1,138,89.7,135.1,89.7"/>
	<path fill="#67297E" d="M153.5,88.2V90h-4.4v12.1h-2.1V90h-1.9v-1.8h1.9V87c0-3,1.5-4.7,4.2-4.7c1,0,1.6,0.1,2.3,0.4v1.8
		c-0.8-0.2-1.3-0.3-2-0.3c-1.6,0-2.4,1-2.4,3v1.1H153.5z"/>
	<path fill="#67297E" d="M170.7,95.4h-4.6v6.7H164V83.2h7.1c4.3,0,7.1,2.3,7.1,6C178.1,93.3,174.7,95.4,170.7,95.4 M170.9,85.2h-4.8
		v8.3h4.7c3.1,0,5.2-1.7,5.2-4.2C176,86.6,173.9,85.2,170.9,85.2"/>
	<path fill="#67297E" d="M192.1,88.2h2.1v13.9h-2.1v-2.4c-0.9,1.5-2.4,2.7-4.8,2.7c-3.4,0-5.3-2.3-5.3-5.6v-8.7h2.1v8.1
		c0,2.6,1.4,4.2,3.9,4.2c2.4,0,4.2-1.8,4.2-4.4V88.2z"/>
	<path fill="#67297E" d="M206.7,102.4c-2.6,0-4.3-1.4-5.3-3v2.7h-2.1V82.4h2.1V91c1.1-1.7,2.8-3.1,5.3-3.1c3.3,0,6.7,2.6,6.7,7.3
		C213.3,99.7,210.1,102.4,206.7,102.4 M206.3,89.7c-2.6,0-5,2.2-5,5.4c0,3.3,2.5,5.4,5,5.4c2.7,0,4.9-2,4.9-5.4
		C211.2,91.8,208.9,89.7,206.3,89.7"/>
	<rect x="217.8" y="82.4" fill="#67297E" width="2.1" height="19.7"/>
	<path fill="#67297E" d="M225.1,82.8h2.4v2.3h-2.4V82.8z M225.2,88.2h2.1v13.9h-2.1V88.2z"/>
	<path fill="#67297E" d="M238.7,102.4c-4.1,0-7.2-3.3-7.2-7.3c0-4,3.1-7.3,7.2-7.3c2.6,0,4.3,1.1,5.6,2.5l-1.4,1.5
		c-1.1-1.2-2.3-2.1-4.2-2.1c-2.8,0-5,2.4-5,5.4c0,3,2.2,5.5,5.1,5.5c1.8,0,3.2-0.9,4.3-2.1l1.3,1.2
		C243,101.3,241.3,102.4,238.7,102.4"/>
	<polygon fill="#67297E" points="257.8,93.6 257.8,102.1 255.6,102.1 255.6,83.2 257.8,83.2 257.8,91.6 268.7,91.6 268.7,83.2 
		270.8,83.2 270.8,102.1 268.7,102.1 268.7,93.6 	"/>
	<path fill="#67297E" d="M282.7,100.6c1.9,0,3.3-0.8,4.4-2l1.3,1.2c-1.4,1.6-3.1,2.6-5.7,2.6c-3.8,0-7-2.9-7-7.3
		c0-4,2.8-7.3,6.7-7.3c4.1,0,6.5,3.3,6.5,7.4c0,0.2,0,0.4,0,0.6h-11.1C278,98.9,280.2,100.6,282.7,100.6 M286.7,94.4
		c-0.2-2.5-1.7-4.8-4.5-4.8c-2.4,0-4.3,2-4.5,4.8H286.7z"/>
	<path fill="#67297E" d="M293.8,90.8l-0.6-1.7c1.5-0.7,3-1.2,5.1-1.2c3.8,0,5.9,1.9,5.9,5.6v8.5h-2V100c-1,1.3-2.6,2.4-5,2.4
		c-2.6,0-5.2-1.5-5.2-4.4c0-3,2.4-4.5,6-4.5c1.8,0,3,0.2,4.3,0.6v-0.5c0-2.5-1.5-3.8-4.2-3.8C296.4,89.8,295.1,90.2,293.8,90.8
		 M294,97.9c0,1.8,1.6,2.8,3.5,2.8c2.6,0,4.7-1.6,4.7-3.8v-1.3c-1-0.3-2.4-0.6-4.1-0.6C295.5,95,294,96.2,294,97.9"/>
	<rect x="309.3" y="82.4" fill="#67297E" width="2.1" height="19.7"/>
	<path fill="#67297E" d="M319.2,98.1c0,1.7,0.9,2.3,2.3,2.3c0.7,0,1.3-0.1,2-0.5v1.8c-0.7,0.4-1.5,0.6-2.5,0.6
		c-2.2,0-3.9-1.1-3.9-3.9V90h-1.9v-1.8h1.9v-4.2h2.1v4.2h4.4V90h-4.4V98.1z"/>
	<path fill="#67297E" d="M329.5,102.1h-2.1V82.4h2.1v8.2c0.9-1.5,2.4-2.7,4.8-2.7c3.4,0,5.3,2.3,5.3,5.6v8.7h-2.1V94
		c0-2.6-1.4-4.2-3.9-4.2c-2.4,0-4.2,1.8-4.2,4.4V102.1z"/>
	<rect x="351" y="83.2" fill="#67297E" width="2.1" height="18.9"/>
	<path fill="#67297E" d="M360.9,102.1h-2.1V88.2h2.1v2.4c0.9-1.5,2.4-2.7,4.8-2.7c3.4,0,5.3,2.3,5.3,5.6v8.7H369V94
		c0-2.6-1.4-4.2-3.9-4.2c-2.4,0-4.2,1.8-4.2,4.4V102.1z"/>
	<path fill="#67297E" d="M380.6,102.4c-2,0-4.2-0.8-5.8-2l1.1-1.5c1.5,1.1,3.2,1.8,4.8,1.8c1.7,0,2.9-0.9,2.9-2.2v-0.1
		c0-1.4-1.6-1.9-3.5-2.5c-2.2-0.6-4.6-1.4-4.6-3.9v-0.1c0-2.4,2-4,4.7-4c1.7,0,3.6,0.6,5,1.5l-0.9,1.6c-1.3-0.8-2.8-1.3-4.1-1.3
		c-1.6,0-2.7,0.9-2.7,2v0.1c0,1.3,1.7,1.8,3.6,2.4c2.2,0.6,4.5,1.5,4.5,4v0.1C385.5,100.8,383.3,102.4,380.6,102.4"/>
	<path fill="#67297E" d="M392.7,98.1c0,1.7,0.9,2.3,2.3,2.3c0.7,0,1.3-0.1,2-0.5v1.8c-0.7,0.4-1.5,0.6-2.5,0.6
		c-2.2,0-3.9-1.1-3.9-3.9V90h-1.9v-1.8h1.9v-4.2h2.1v4.2h4.4V90h-4.4V98.1z"/>
	<path fill="#67297E" d="M400.8,82.8h2.4v2.3h-2.4V82.8z M401,88.2h2.1v13.9H401V88.2z"/>
	<path fill="#67297E" d="M410.8,98.1c0,1.7,0.9,2.3,2.3,2.3c0.7,0,1.3-0.1,2-0.5v1.8c-0.7,0.4-1.5,0.6-2.5,0.6
		c-2.2,0-3.9-1.1-3.9-3.9V90h-1.9v-1.8h1.9v-4.2h2.1v4.2h4.4V90h-4.4V98.1z"/>
	<path fill="#67297E" d="M429.1,88.2h2.1v13.9h-2.1v-2.4c-0.9,1.5-2.4,2.7-4.8,2.7c-3.4,0-5.3-2.3-5.3-5.6v-8.7h2.1v8.1
		c0,2.6,1.4,4.2,3.9,4.2c2.4,0,4.2-1.8,4.2-4.4V88.2z"/>
	<path fill="#67297E" d="M438.9,98.1c0,1.7,0.9,2.3,2.3,2.3c0.7,0,1.3-0.1,2-0.5v1.8c-0.7,0.4-1.5,0.6-2.5,0.6
		c-2.2,0-3.9-1.1-3.9-3.9V90h-1.9v-1.8h1.9v-4.2h2.1v4.2h4.4V90h-4.4V98.1z"/>
	<path fill="#67297E" d="M452.9,100.6c1.9,0,3.3-0.8,4.4-2l1.3,1.2c-1.4,1.6-3.1,2.6-5.7,2.6c-3.8,0-7-2.9-7-7.3
		c0-4,2.8-7.3,6.7-7.3c4.1,0,6.5,3.3,6.5,7.4c0,0.2,0,0.4,0,0.6H448C448.3,98.9,450.5,100.6,452.9,100.6 M457,94.4
		c-0.2-2.5-1.7-4.8-4.5-4.8c-2.4,0-4.3,2-4.5,4.8H457z"/>
	<path fill="#67297E" d="M467.8,102.4c-2,0-4.2-0.8-5.8-2l1.1-1.5c1.5,1.1,3.2,1.8,4.8,1.8c1.7,0,2.9-0.9,2.9-2.2v-0.1
		c0-1.4-1.6-1.9-3.5-2.5c-2.2-0.6-4.6-1.4-4.6-3.9v-0.1c0-2.4,2-4,4.7-4c1.7,0,3.6,0.6,5,1.5l-0.9,1.6c-1.3-0.8-2.8-1.3-4.1-1.3
		c-1.6,0-2.7,0.9-2.7,2v0.1c0,1.3,1.7,1.8,3.6,2.4c2.2,0.6,4.5,1.5,4.5,4v0.1C472.8,100.8,470.6,102.4,467.8,102.4"/>
</g>
</svg>
