<?xml version="1.0" encoding="utf-8"?>
<!-- Generator: Adobe Illustrator 22.0.1, SVG Export Plug-In . SVG Version: 6.00 Build 0)  -->
<svg version="1.1" id="Layer_1" xmlns="http://www.w3.org/2000/svg" xmlns:xlink="http://www.w3.org/1999/xlink" x="0px" y="0px"
	 viewBox="0 0 2600 1300" style="enable-background:new 0 0 2600 1300;" xml:space="preserve">
<style type="text/css">
	.st0{fill:none;stroke:url(#SVGID_1_);stroke-width:2;stroke-miterlimit:10;}
	.st1{fill:none;stroke:url(#SVGID_2_);stroke-width:2;stroke-miterlimit:10;}
	.st2{fill:none;stroke:url(#SVGID_3_);stroke-width:2;stroke-miterlimit:10;}
	.st3{fill:none;stroke:url(#SVGID_4_);stroke-width:2;stroke-miterlimit:10;}
	.st4{fill:none;stroke:url(#SVGID_5_);stroke-width:2;stroke-miterlimit:10;}
	.st5{fill:none;stroke:url(#SVGID_6_);stroke-width:2;stroke-miterlimit:10;}
	.st6{fill:none;stroke:url(#SVGID_7_);stroke-width:2;stroke-miterlimit:10;}
	.st7{fill:none;stroke:url(#SVGID_8_);stroke-width:2;stroke-miterlimit:10;}
	.st8{fill:none;stroke:url(#SVGID_9_);stroke-width:2;stroke-miterlimit:10;}
	.st9{fill:none;stroke:url(#SVGID_10_);stroke-width:2;stroke-miterlimit:10;}
	.st10{fill:none;stroke:url(#SVGID_11_);stroke-width:2;stroke-miterlimit:10;}
	.st11{fill:none;stroke:url(#SVGID_12_);stroke-width:2;stroke-miterlimit:10;}
	.st12{fill:none;stroke:url(#SVGID_13_);stroke-width:2;stroke-miterlimit:10;}
	.st13{fill:none;stroke:url(#SVGID_14_);stroke-width:2;stroke-miterlimit:10;}
	.st14{fill:none;stroke:url(#SVGID_15_);stroke-width:2;stroke-miterlimit:10;}
	.st15{fill:none;stroke:url(#SVGID_16_);stroke-width:2;stroke-miterlimit:10;}
	.st16{fill:none;stroke:url(#SVGID_17_);stroke-width:2;stroke-miterlimit:10;}
	.st17{fill:none;stroke:url(#SVGID_18_);stroke-width:2;stroke-miterlimit:10;}
	.st18{fill:none;stroke:url(#SVGID_19_);stroke-width:2;stroke-miterlimit:10;}
	.st19{fill:none;stroke:url(#SVGID_20_);stroke-width:2;stroke-miterlimit:10;}
	.st20{fill:none;stroke:url(#SVGID_21_);stroke-width:2;stroke-miterlimit:10;}
	.st21{fill:none;stroke:url(#SVGID_22_);stroke-width:2;stroke-miterlimit:10;}
	.st22{fill:none;stroke:url(#SVGID_23_);stroke-width:2;stroke-miterlimit:10;}
</style>
<g>
	<g>
		<linearGradient id="SVGID_1_" gradientUnits="userSpaceOnUse" x1="1524.0033" y1="58.3128" x2="2600.9282" y2="58.3128">
			<stop  offset="0" style="stop-color:#40A2CE"/>
			<stop  offset="1" style="stop-color:#6D4382"/>
		</linearGradient>
		<path class="st0" d="M2599.9,200.6c0,112.5-67.9,202.6-155.5,266.8c-111,81.4-249.5,128.4-386.4,129
			c-144.5,0.7-281.6-61-378.9-168.8C1577,314.4,1522.7,161.5,1525.1,9.5c2.3-148.3,59.8-299.1,174.9-396.3
			c112.6-95.1,263.2-116.5,400.9-67.9c149.5,52.8,270.3,170.3,359.5,298.3C2531.9-53.9,2599.9,72.2,2599.9,200.6z"/>
		<linearGradient id="SVGID_2_" gradientUnits="userSpaceOnUse" x1="1452.3569" y1="49.0037" x2="2537.4907" y2="49.0037">
			<stop  offset="0" style="stop-color:#4DA7C3"/>
			<stop  offset="1" style="stop-color:#68477D"/>
		</linearGradient>
		<path class="st1" d="M2536.5,180.3c-3.4,260.8-319.6,416.5-547.4,416.1c-314.1-0.6-538.9-288.6-535.7-589.8
			c1.6-150.2,59.3-302.2,173.6-402.7c111.7-98.2,263.4-126.3,404.5-81.7c151.8,48,275.6,163.3,365.8,291.2
			C2471.6-81.4,2538.2,48.3,2536.5,180.3z"/>
		<linearGradient id="SVGID_3_" gradientUnits="userSpaceOnUse" x1="1380.5891" y1="40.5402" x2="2473.2063" y2="40.5402">
			<stop  offset="0" style="stop-color:#5BACB8"/>
			<stop  offset="1" style="stop-color:#634C78"/>
		</linearGradient>
		<path class="st2" d="M2472.1,161.1c-6.1,265.8-313.7,435.7-551.9,435.3c-314.2-0.6-540.3-290.9-538.6-591.6
			c0.9-151.7,58.7-305,172.1-408.3c111-101.1,263.1-135.8,407.5-95.3c153.7,43.1,280.7,156.1,371.8,283.8
			C2410-107.3,2475.2,25.7,2472.1,161.1z"/>
		<linearGradient id="SVGID_4_" gradientUnits="userSpaceOnUse" x1="1308.7507" y1="32.9353" x2="2408.0962" y2="32.9353">
			<stop  offset="0" style="stop-color:#68B1AC"/>
			<stop  offset="1" style="stop-color:#5E5072"/>
		</linearGradient>
		<path class="st3" d="M2406.9,143c-8.2,270.2-308,453.8-555.6,453.3c-313.8-0.6-541.7-292.1-541.5-592.3
			c0.1-153.1,58-307.1,170.4-413.2c110.1-103.9,262.8-144.7,409.8-108.5c155.4,38.3,285.2,148.6,377.5,276
			C2347.1-131.6,2411.1,4.5,2406.9,143z"/>
		<linearGradient id="SVGID_5_" gradientUnits="userSpaceOnUse" x1="1236.8903" y1="26.2012" x2="2342.1934" y2="26.2012">
			<stop  offset="0" style="stop-color:#75B6A1"/>
			<stop  offset="1" style="stop-color:#59546D"/>
		</linearGradient>
		<path class="st4" d="M2340.9,126.1c-9.7,274.1-302.4,470.7-558.5,470.3c-313.1-0.6-543.2-292.3-544.5-591.8
			c-0.7-154.1,57.3-308.9,168.5-417.2C1515.7-519.1,1668.2-566,1818-534.1c156.9,33.5,289.4,141,382.8,268
			C2283-154.2,2345.9-15.4,2340.9,126.1z"/>
		<linearGradient id="SVGID_6_" gradientUnits="userSpaceOnUse" x1="1165.0591" y1="20.3482" x2="2275.5369" y2="20.3482">
			<stop  offset="0" style="stop-color:#83BB96"/>
			<stop  offset="1" style="stop-color:#545968"/>
		</linearGradient>
		<path class="st5" d="M2274.2,110.2c-10.7,277.6-296.9,486.6-560.7,486.1c-312-0.6-544.6-291.4-547.4-590.3
			c-1.4-154.8,56.5-310.2,166.4-420.5c108.4-108.8,260.7-161.5,412.8-133.9c158,28.6,293.3,133.1,387.7,259.6
			C2217.8-175.2,2279.8-33.9,2274.2,110.2z"/>
		<linearGradient id="SVGID_7_" gradientUnits="userSpaceOnUse" x1="1093.3108" y1="15.2738" x2="2208.1707" y2="15.2738">
			<stop  offset="0" style="stop-color:#90C08B"/>
			<stop  offset="1" style="stop-color:#4E5D63"/>
		</linearGradient>
		<path class="st6" d="M2206.8,95.5c-11.4,280.6-291.4,501.3-562.2,500.9c-310.5-0.5-546-289.6-550.2-587.7
			c-4.3-309.7,248.2-618.6,577.6-569.2c158.9,23.8,296.7,125.1,392.3,250.9C2151.6-194.7,2212.7-51,2206.8,95.5z"/>
		<linearGradient id="SVGID_8_" gradientUnits="userSpaceOnUse" x1="1021.6923" y1="11.244" x2="2140.1504" y2="11.244">
			<stop  offset="0" style="stop-color:#9EC580"/>
			<stop  offset="1" style="stop-color:#49625E"/>
		</linearGradient>
		<path class="st7" d="M2138.7,81.8c-11.6,283.4-285.9,515-563.1,514.5c-308.6-0.5-547.3-286.7-552.9-584
			c-5.8-309.9,246.2-622.1,575.4-582.8C1899.1-534.6,2151-217.5,2138.7,81.8z"/>
		<linearGradient id="SVGID_9_" gradientUnits="userSpaceOnUse" x1="950.2571" y1="8.1114" x2="2071.5029" y2="8.1114">
			<stop  offset="0" style="stop-color:#ABCA75"/>
			<stop  offset="1" style="stop-color:#446659"/>
		</linearGradient>
		<path class="st8" d="M2070.1,69.3c-11.6,285.8-280.4,527.5-563.3,527c-306.3-0.5-548.5-282.9-555.3-579.1
			c-7.2-309.8,244.3-624.6,572.6-595.3C1830.9-550.9,2082.3-232.8,2070.1,69.3z"/>
		<linearGradient id="SVGID_10_" gradientUnits="userSpaceOnUse" x1="879.0583" y1="5.8751" x2="2002.2957" y2="5.8751">
			<stop  offset="0" style="stop-color:#B8CF69"/>
			<stop  offset="1" style="stop-color:#3F6A53"/>
		</linearGradient>
		<path class="st9" d="M2000.9,57.8c-11.3,287.9-275,539-563.1,538.5c-303.6-0.5-549.5-278.2-557.6-573.2
			C871.8-286.4,1123-603,1449.5-583.7C1761.8-565.2,2012.8-246.5,2000.9,57.8z"/>
		<linearGradient id="SVGID_11_" gradientUnits="userSpaceOnUse" x1="808.1494" y1="4.5336" x2="1932.5811" y2="4.5336">
			<stop  offset="0" style="stop-color:#C6D45E"/>
			<stop  offset="1" style="stop-color:#3A6F4E"/>
		</linearGradient>
		<path class="st10" d="M1931.2,47.5c-10.8,290.5-269.1,548.8-562.3,548.8c-300.9,0-550.4-272.5-559.5-566.2
			c-9.6-308.7,241.3-626.7,565.4-617.1C1691.7-577.7,1942.6-258.7,1931.2,47.5z"/>
		<linearGradient id="SVGID_12_" gradientUnits="userSpaceOnUse" x1="737.584" y1="4.0868" x2="1862.4147" y2="4.0868">
			<stop  offset="0" style="stop-color:#D3D953"/>
			<stop  offset="1" style="stop-color:#357349"/>
		</linearGradient>
		<path class="st11" d="M1861.1,38.2c-10,292.2-263.8,558.1-561.1,558.1c-297.3,0-551.1-265.8-561.1-558.1
			C728.3-269.4,979.2-588.1,1300-588.1S1871.7-269.4,1861.1,38.2z"/>
		<linearGradient id="SVGID_13_" gradientUnits="userSpaceOnUse" x1="667.4169" y1="4.5336" x2="1791.85" y2="4.5336">
			<stop  offset="0" style="stop-color:#D4D352"/>
			<stop  offset="1" style="stop-color:#3F6D4B"/>
		</linearGradient>
		<path class="st12" d="M1790.6,30.1c-9.1,293.7-258.6,566.2-559.5,566.2c-293.2,0-551.5-258.3-562.3-548.8
			C657.4-258.7,908.3-577.7,1225.2-587C1549.3-596.6,1800.2-278.6,1790.6,30.1z"/>
		<linearGradient id="SVGID_14_" gradientUnits="userSpaceOnUse" x1="597.733" y1="5.8747" x2="1720.9415" y2="5.8747">
			<stop  offset="0" style="stop-color:#D6CD51"/>
			<stop  offset="1" style="stop-color:#48674D"/>
		</linearGradient>
		<path class="st13" d="M1719.7,23.1c-8,295-253.5,573.2-557.6,573.2C874.3,596.3,610,346,599.1,57.8
			c-11.5-303.9,239.1-623,551.4-641.5C1477-603,1728.2-286.4,1719.7,23.1z"/>
		<linearGradient id="SVGID_15_" gradientUnits="userSpaceOnUse" x1="528.5266" y1="8.1111" x2="1649.7424" y2="8.1111">
			<stop  offset="0" style="stop-color:#D7C74F"/>
			<stop  offset="1" style="stop-color:#52614F"/>
		</linearGradient>
		<path class="st14" d="M1648.6,17.2c-6.8,296.2-248.5,579.1-555.3,579.1c-282.7,0-552.2-241-563.3-527
			C518.1-232.3,769.1-550.9,1076-578.2C1404.2-607.4,1655.8-292.7,1648.6,17.2z"/>
		<linearGradient id="SVGID_16_" gradientUnits="userSpaceOnUse" x1="459.8799" y1="11.2437" x2="1578.3068" y2="11.2437">
			<stop  offset="0" style="stop-color:#D8C14E"/>
			<stop  offset="1" style="stop-color:#5C5B51"/>
		</linearGradient>
		<path class="st15" d="M1577.2,12.3c-5.6,297.2-243.7,583.9-552.9,584c-277,0-551.9-230.9-563.1-514.5
			c-11.8-298.9,239.6-616.4,540.5-652.3C1331-609.7,1583-297.6,1577.2,12.3z"/>
		<linearGradient id="SVGID_17_" gradientUnits="userSpaceOnUse" x1="391.8568" y1="15.2735" x2="1506.688" y2="15.2735">
			<stop  offset="0" style="stop-color:#D9BB4D"/>
			<stop  offset="1" style="stop-color:#665553"/>
		</linearGradient>
		<path class="st16" d="M1505.6,8.6c-4.2,298.1-239.1,587.7-550.2,587.7c-270.6,0-551.3-220-562.2-500.9
			c-5.7-146.1,55.1-290.3,142.5-405.1C631.5-435.4,769-536.7,928-560.5C1257.4-609.9,1510-301.1,1505.6,8.6z"/>
		<linearGradient id="SVGID_18_" gradientUnits="userSpaceOnUse" x1="324.4888" y1="20.3493" x2="1434.9398" y2="20.3493">
			<stop  offset="0" style="stop-color:#DBB64C"/>
			<stop  offset="1" style="stop-color:#6F5054"/>
		</linearGradient>
		<path class="st17" d="M1433.9,6c-2.8,298.9-234.8,590.3-547.4,590.3c-263.6,0-550.5-208.4-560.7-486.1
			c-5.3-143.7,56.3-285.6,141.2-399c94.6-126.4,229.6-230.9,387.7-259.6c151.9-27.5,304.6,25,412.8,133.9
			C1377.3-304,1435.3-149,1433.9,6z"/>
		<linearGradient id="SVGID_19_" gradientUnits="userSpaceOnUse" x1="257.83" y1="26.2008" x2="1363.108" y2="26.2008">
			<stop  offset="0" style="stop-color:#DCB04B"/>
			<stop  offset="1" style="stop-color:#794A56"/>
		</linearGradient>
		<path class="st18" d="M1362.1,4.5c-1.3,299.6-230.8,591.8-544.5,591.8c-255.8,0.1-549.3-196.1-558.5-470.3
			C254.3-15.1,317-154.2,399.2-266.1c93.4-127,225.9-234.5,382.8-268c149.7-32,302.3,15,411.6,121.4
			C1304.8-304.4,1362.8-149.6,1362.1,4.5z"/>
		<linearGradient id="SVGID_20_" gradientUnits="userSpaceOnUse" x1="191.9233" y1="32.9346" x2="1291.248" y2="32.9346">
			<stop  offset="0" style="stop-color:#DDAA4A"/>
			<stop  offset="1" style="stop-color:#834458"/>
		</linearGradient>
		<path class="st19" d="M1290.2,4.1c0.2,300.2-227.2,592.2-541.5,592.3c-247.2,0.1-548-183.1-555.6-453.3
			c-3.9-138.4,59.8-274.5,139.4-384.5c92.2-127.4,222.2-237.7,377.5-276c147.2-36.3,299.5,4.7,409.8,108.5
			C1232.3-303.3,1290.1-148.9,1290.2,4.1z"/>
		<linearGradient id="SVGID_21_" gradientUnits="userSpaceOnUse" x1="126.8084" y1="40.5396" x2="1219.4098" y2="40.5396">
			<stop  offset="0" style="stop-color:#DEA448"/>
			<stop  offset="1" style="stop-color:#8D3E5A"/>
		</linearGradient>
		<path class="st20" d="M1218.4,4.8c1.7,300.7-223.9,591.5-538.6,591.6C442,596.4,133.5,426.9,127.9,161.1
			C125.1,25.9,190-107.3,267-215c91.2-127.7,218.1-240.6,371.8-283.8c144.3-40.5,296.4-5.8,407.5,95.3
			C1159.7-300.2,1217.5-146.9,1218.4,4.8z"/>
		<linearGradient id="SVGID_22_" gradientUnits="userSpaceOnUse" x1="62.516" y1="49.0045" x2="1147.642" y2="49.0045">
			<stop  offset="0" style="stop-color:#E09E47"/>
			<stop  offset="1" style="stop-color:#96385C"/>
		</linearGradient>
		<path class="st21" d="M1146.6,6.6c3.2,301.2-221.1,589.7-535.7,589.8c-138.3,0-277.8-50.6-387.4-134.2
			c-90-68.7-158.6-165.3-159.9-281.9C62.1,48.5,128.4-81.3,202.6-186.6c90.1-127.9,214.1-243.2,365.8-291.2
			C709.7-522.4,861-494.2,973-396.1C1087.4-295.9,1145-143.4,1146.6,6.6z"/>
		<linearGradient id="SVGID_23_" gradientUnits="userSpaceOnUse" x1="-0.9312" y1="58.3109" x2="1075.9958" y2="58.3109">
			<stop  offset="0" style="stop-color:#E19846"/>
			<stop  offset="1" style="stop-color:#A0325E"/>
		</linearGradient>
		<path class="st22" d="M1074.9,9.5c2.3,152-51.9,304.9-154.1,418.1C823.6,535.4,686.5,597.1,542,596.4
			c-136.9-0.6-275.4-47.6-386.4-129C68.2,403.4-0.2,312.7,0.1,200.6c0.3-128.1,68.1-254.5,139.6-357
			c89.2-127.9,210-245.5,359.5-298.3c137.7-48.6,288.3-27.3,400.9,67.9C1015.1-289.6,1072.7-138.8,1074.9,9.5z"/>
	</g>
</g>
</svg>
